<svg width="720" height="1024" viewBox="0 0 720 1024" fill="none" xmlns="http://www.w3.org/2000/svg">
<rect x="720" y="1024" width="720" height="1024" transform="rotate(-180 720 1024)" fill="url(#paint0_linear_982_86)"/>
<circle cx="525.637" cy="715.172" r="175.829" fill="#F9A0BA"/>
<circle cx="127.6" cy="515.115" r="151.6" fill="#F9A0BA"/>
<circle cx="605.937" cy="245.834" r="88.6065" fill="#F9A0BA"/>
<g filter="url(#filter0_b_982_86)">
<rect x="108.91" y="124" width="497.027" height="701.93" rx="27.6895" fill="url(#paint1_linear_982_86)"/>
<rect x="110.294" y="125.384" width="494.258" height="699.161" rx="26.3051" stroke="url(#paint2_linear_982_86)" stroke-width="2.76895"/>
</g>
<circle cx="475" cy="609" r="42" fill="#00A4BF"/>
<path d="M496.061 611.061C496.646 610.475 496.646 609.525 496.061 608.939L486.515 599.393C485.929 598.808 484.979 598.808 484.393 599.393C483.808 599.979 483.808 600.929 484.393 601.515L492.879 610L484.393 618.485C483.808 619.071 483.808 620.021 484.393 620.607C484.979 621.192 485.929 621.192 486.515 620.607L496.061 611.061ZM447 611.5H495V608.5H447V611.5Z" fill="white"/>
<defs>
<filter id="filter0_b_982_86" x="32.7635" y="47.8538" width="649.32" height="854.222" filterUnits="userSpaceOnUse" color-interpolation-filters="sRGB">
<feFlood flood-opacity="0" result="BackgroundImageFix"/>
<feGaussianBlur in="BackgroundImageFix" stdDeviation="38.0731"/>
<feComposite in2="SourceAlpha" operator="in" result="effect1_backgroundBlur_982_86"/>
<feBlend mode="normal" in="SourceGraphic" in2="effect1_backgroundBlur_982_86" result="shape"/>
</filter>
<linearGradient id="paint0_linear_982_86" x1="1080" y1="1024" x2="1080" y2="2048" gradientUnits="userSpaceOnUse">
<stop stop-color="#E7DDDB"/>
<stop offset="0.405" stop-color="#D1D7D6"/>
<stop offset="1" stop-color="#11A8C1"/>
</linearGradient>
<linearGradient id="paint1_linear_982_86" x1="186.126" y1="134.028" x2="750.712" y2="328.613" gradientUnits="userSpaceOnUse">
<stop stop-color="#EFEFEF" stop-opacity="0.6"/>
<stop offset="1" stop-color="white" stop-opacity="0.08"/>
</linearGradient>
<linearGradient id="paint2_linear_982_86" x1="133.761" y1="181.157" x2="696.052" y2="329.468" gradientUnits="userSpaceOnUse">
<stop stop-color="white" stop-opacity="0.6"/>
<stop offset="1" stop-color="white" stop-opacity="0.1"/>
</linearGradient>
</defs>
</svg>
