<svg width="720" height="1024" viewBox="0 0 720 1024" fill="none" xmlns="http://www.w3.org/2000/svg">
<rect x="720" y="1024" width="720" height="1024" transform="rotate(-180 720 1024)" fill="url(#paint0_linear_985_87)"/>
<circle cx="525.637" cy="715.172" r="175.829" fill="#F9A0BA"/>
<circle cx="127.6" cy="515.115" r="151.6" fill="#F9A0BA"/>
<circle cx="605.937" cy="245.834" r="88.6065" fill="#F9A0BA"/>
<g filter="url(#filter0_b_985_87)">
<rect x="108.91" y="124" width="497.027" height="701.93" rx="27.6895" fill="url(#paint1_linear_985_87)"/>
<rect x="110.294" y="125.384" width="494.258" height="699.161" rx="26.3051" stroke="url(#paint2_linear_985_87)" stroke-width="2.76895"/>
</g>
<path d="M176.81 307.828C178.147 308.077 179.247 308.746 180.108 309.834C180.969 310.922 181.4 312.169 181.4 313.574C181.4 314.843 181.083 315.965 180.448 316.94C179.836 317.892 178.941 318.64 177.762 319.184C176.583 319.728 175.189 320 173.58 320H163.346V296.268H173.138C174.747 296.268 176.13 296.529 177.286 297.05C178.465 297.571 179.349 298.297 179.938 299.226C180.55 300.155 180.856 301.209 180.856 302.388C180.856 303.771 180.482 304.927 179.734 305.856C179.009 306.785 178.034 307.443 176.81 307.828ZM168.106 306.06H172.458C173.591 306.06 174.464 305.811 175.076 305.312C175.688 304.791 175.994 304.054 175.994 303.102C175.994 302.15 175.688 301.413 175.076 300.892C174.464 300.371 173.591 300.11 172.458 300.11H168.106V306.06ZM172.9 316.124C174.056 316.124 174.951 315.852 175.586 315.308C176.243 314.764 176.572 313.993 176.572 312.996C176.572 311.976 176.232 311.183 175.552 310.616C174.872 310.027 173.954 309.732 172.798 309.732H168.106V316.124H172.9ZM187.608 298.92C186.769 298.92 186.066 298.659 185.5 298.138C184.956 297.594 184.684 296.925 184.684 296.132C184.684 295.339 184.956 294.681 185.5 294.16C186.066 293.616 186.769 293.344 187.608 293.344C188.446 293.344 189.138 293.616 189.682 294.16C190.248 294.681 190.532 295.339 190.532 296.132C190.532 296.925 190.248 297.594 189.682 298.138C189.138 298.659 188.446 298.92 187.608 298.92ZM189.954 301.164V320H185.194V301.164H189.954ZM212.167 310.174C212.167 310.854 212.121 311.466 212.031 312.01H198.261C198.374 313.37 198.85 314.435 199.689 315.206C200.527 315.977 201.559 316.362 202.783 316.362C204.551 316.362 205.809 315.603 206.557 314.084H211.691C211.147 315.897 210.104 317.393 208.563 318.572C207.021 319.728 205.129 320.306 202.885 320.306C201.071 320.306 199.439 319.909 197.989 319.116C196.561 318.3 195.439 317.155 194.623 315.682C193.829 314.209 193.433 312.509 193.433 310.582C193.433 308.633 193.829 306.921 194.623 305.448C195.416 303.975 196.527 302.841 197.955 302.048C199.383 301.255 201.026 300.858 202.885 300.858C204.675 300.858 206.273 301.243 207.679 302.014C209.107 302.785 210.206 303.884 210.977 305.312C211.77 306.717 212.167 308.338 212.167 310.174ZM207.237 308.814C207.214 307.59 206.772 306.615 205.911 305.89C205.049 305.142 203.995 304.768 202.749 304.768C201.57 304.768 200.573 305.131 199.757 305.856C198.963 306.559 198.476 307.545 198.295 308.814H207.237ZM226.079 300.892C228.323 300.892 230.136 301.606 231.519 303.034C232.902 304.439 233.593 306.411 233.593 308.95V320H228.833V309.596C228.833 308.1 228.459 306.955 227.711 306.162C226.963 305.346 225.943 304.938 224.651 304.938C223.336 304.938 222.294 305.346 221.523 306.162C220.775 306.955 220.401 308.1 220.401 309.596V320H215.641V301.164H220.401V303.51C221.036 302.694 221.84 302.059 222.815 301.606C223.812 301.13 224.9 300.892 226.079 300.892ZM245.973 315.614L250.733 301.164H255.799L248.829 320H243.049L236.113 301.164H241.213L245.973 315.614ZM275.983 310.174C275.983 310.854 275.938 311.466 275.847 312.01H262.077C262.19 313.37 262.666 314.435 263.505 315.206C264.344 315.977 265.375 316.362 266.599 316.362C268.367 316.362 269.625 315.603 270.373 314.084H275.507C274.963 315.897 273.92 317.393 272.379 318.572C270.838 319.728 268.945 320.306 266.701 320.306C264.888 320.306 263.256 319.909 261.805 319.116C260.377 318.3 259.255 317.155 258.439 315.682C257.646 314.209 257.249 312.509 257.249 310.582C257.249 308.633 257.646 306.921 258.439 305.448C259.232 303.975 260.343 302.841 261.771 302.048C263.199 301.255 264.842 300.858 266.701 300.858C268.492 300.858 270.09 301.243 271.495 302.014C272.923 302.785 274.022 303.884 274.793 305.312C275.586 306.717 275.983 308.338 275.983 310.174ZM271.053 308.814C271.03 307.59 270.588 306.615 269.727 305.89C268.866 305.142 267.812 304.768 266.565 304.768C265.386 304.768 264.389 305.131 263.573 305.856C262.78 306.559 262.292 307.545 262.111 308.814H271.053ZM289.895 300.892C292.139 300.892 293.953 301.606 295.335 303.034C296.718 304.439 297.409 306.411 297.409 308.95V320H292.649V309.596C292.649 308.1 292.275 306.955 291.527 306.162C290.779 305.346 289.759 304.938 288.467 304.938C287.153 304.938 286.11 305.346 285.339 306.162C284.591 306.955 284.217 308.1 284.217 309.596V320H279.457V301.164H284.217V303.51C284.852 302.694 285.657 302.059 286.631 301.606C287.629 301.13 288.717 300.892 289.895 300.892ZM319.718 301.164V320H314.924V317.62C314.312 318.436 313.507 319.082 312.51 319.558C311.535 320.011 310.47 320.238 309.314 320.238C307.841 320.238 306.537 319.932 305.404 319.32C304.271 318.685 303.375 317.767 302.718 316.566C302.083 315.342 301.766 313.891 301.766 312.214V301.164H306.526V311.534C306.526 313.03 306.9 314.186 307.648 315.002C308.396 315.795 309.416 316.192 310.708 316.192C312.023 316.192 313.054 315.795 313.802 315.002C314.55 314.186 314.924 313.03 314.924 311.534V301.164H319.718ZM341.924 310.174C341.924 310.854 341.879 311.466 341.788 312.01H328.018C328.132 313.37 328.608 314.435 329.446 315.206C330.285 315.977 331.316 316.362 332.54 316.362C334.308 316.362 335.566 315.603 336.314 314.084H341.448C340.904 315.897 339.862 317.393 338.32 318.572C336.779 319.728 334.886 320.306 332.642 320.306C330.829 320.306 329.197 319.909 327.746 319.116C326.318 318.3 325.196 317.155 324.38 315.682C323.587 314.209 323.19 312.509 323.19 310.582C323.19 308.633 323.587 306.921 324.38 305.448C325.174 303.975 326.284 302.841 327.712 302.048C329.14 301.255 330.784 300.858 332.642 300.858C334.433 300.858 336.031 301.243 337.436 302.014C338.864 302.785 339.964 303.884 340.734 305.312C341.528 306.717 341.924 308.338 341.924 310.174ZM336.994 308.814C336.972 307.59 336.53 306.615 335.668 305.89C334.807 305.142 333.753 304.768 332.506 304.768C331.328 304.768 330.33 305.131 329.514 305.856C328.721 306.559 328.234 307.545 328.052 308.814H336.994ZM352.276 310.514C352.276 308.61 352.65 306.921 353.398 305.448C354.169 303.975 355.212 302.841 356.526 302.048C357.841 301.255 359.303 300.858 360.912 300.858C362.136 300.858 363.304 301.13 364.414 301.674C365.525 302.195 366.409 302.898 367.066 303.782V294.84H371.894V320H367.066V317.212C366.477 318.141 365.65 318.889 364.584 319.456C363.519 320.023 362.284 320.306 360.878 320.306C359.292 320.306 357.841 319.898 356.526 319.082C355.212 318.266 354.169 317.121 353.398 315.648C352.65 314.152 352.276 312.441 352.276 310.514ZM367.1 310.582C367.1 309.426 366.874 308.44 366.42 307.624C365.967 306.785 365.355 306.151 364.584 305.72C363.814 305.267 362.986 305.04 362.102 305.04C361.218 305.04 360.402 305.255 359.654 305.686C358.906 306.117 358.294 306.751 357.818 307.59C357.365 308.406 357.138 309.381 357.138 310.514C357.138 311.647 357.365 312.645 357.818 313.506C358.294 314.345 358.906 314.991 359.654 315.444C360.425 315.897 361.241 316.124 362.102 316.124C362.986 316.124 363.814 315.909 364.584 315.478C365.355 315.025 365.967 314.39 366.42 313.574C366.874 312.735 367.1 311.738 367.1 310.582ZM375.319 310.514C375.319 308.61 375.693 306.921 376.441 305.448C377.212 303.975 378.243 302.841 379.535 302.048C380.85 301.255 382.312 300.858 383.921 300.858C385.327 300.858 386.551 301.141 387.593 301.708C388.659 302.275 389.509 302.989 390.143 303.85V301.164H394.937V320H390.143V317.246C389.531 318.13 388.681 318.867 387.593 319.456C386.528 320.023 385.293 320.306 383.887 320.306C382.301 320.306 380.85 319.898 379.535 319.082C378.243 318.266 377.212 317.121 376.441 315.648C375.693 314.152 375.319 312.441 375.319 310.514ZM390.143 310.582C390.143 309.426 389.917 308.44 389.463 307.624C389.01 306.785 388.398 306.151 387.627 305.72C386.857 305.267 386.029 305.04 385.145 305.04C384.261 305.04 383.445 305.255 382.697 305.686C381.949 306.117 381.337 306.751 380.861 307.59C380.408 308.406 380.181 309.381 380.181 310.514C380.181 311.647 380.408 312.645 380.861 313.506C381.337 314.345 381.949 314.991 382.697 315.444C383.468 315.897 384.284 316.124 385.145 316.124C386.029 316.124 386.857 315.909 387.627 315.478C388.398 315.025 389.01 314.39 389.463 313.574C389.917 312.735 390.143 311.738 390.143 310.582ZM410.024 300.892C412.268 300.892 414.082 301.606 415.464 303.034C416.847 304.439 417.538 306.411 417.538 308.95V320H412.778V309.596C412.778 308.1 412.404 306.955 411.656 306.162C410.908 305.346 409.888 304.938 408.596 304.938C407.282 304.938 406.239 305.346 405.468 306.162C404.72 306.955 404.346 308.1 404.346 309.596V320H399.586V301.164H404.346V303.51C404.981 302.694 405.786 302.059 406.76 301.606C407.758 301.13 408.846 300.892 410.024 300.892ZM429.273 320.306C427.731 320.306 426.349 320.034 425.125 319.49C423.901 318.923 422.926 318.164 422.201 317.212C421.498 316.26 421.113 315.206 421.045 314.05H425.839C425.929 314.775 426.281 315.376 426.893 315.852C427.527 316.328 428.309 316.566 429.239 316.566C430.145 316.566 430.848 316.385 431.347 316.022C431.868 315.659 432.129 315.195 432.129 314.628C432.129 314.016 431.811 313.563 431.177 313.268C430.565 312.951 429.579 312.611 428.219 312.248C426.813 311.908 425.657 311.557 424.751 311.194C423.867 310.831 423.096 310.276 422.439 309.528C421.804 308.78 421.487 307.771 421.487 306.502C421.487 305.459 421.781 304.507 422.371 303.646C422.983 302.785 423.844 302.105 424.955 301.606C426.088 301.107 427.414 300.858 428.933 300.858C431.177 300.858 432.967 301.425 434.305 302.558C435.642 303.669 436.379 305.176 436.515 307.08H431.959C431.891 306.332 431.573 305.743 431.007 305.312C430.463 304.859 429.726 304.632 428.797 304.632C427.935 304.632 427.267 304.791 426.791 305.108C426.337 305.425 426.111 305.867 426.111 306.434C426.111 307.069 426.428 307.556 427.063 307.896C427.697 308.213 428.683 308.542 430.021 308.882C431.381 309.222 432.503 309.573 433.387 309.936C434.271 310.299 435.03 310.865 435.665 311.636C436.322 312.384 436.662 313.381 436.685 314.628C436.685 315.716 436.379 316.691 435.767 317.552C435.177 318.413 434.316 319.093 433.183 319.592C432.072 320.068 430.769 320.306 429.273 320.306ZM459.132 300.892C461.376 300.892 463.189 301.606 464.572 303.034C465.954 304.439 466.646 306.411 466.646 308.95V320H461.886V309.596C461.886 308.1 461.512 306.955 460.764 306.162C460.016 305.346 458.996 304.938 457.704 304.938C456.389 304.938 455.346 305.346 454.576 306.162C453.828 306.955 453.454 308.1 453.454 309.596V320H448.694V301.164H453.454V303.51C454.088 302.694 454.893 302.059 455.868 301.606C456.865 301.13 457.953 300.892 459.132 300.892ZM479.536 320.306C477.723 320.306 476.091 319.909 474.64 319.116C473.19 318.3 472.045 317.155 471.206 315.682C470.39 314.209 469.982 312.509 469.982 310.582C469.982 308.655 470.402 306.955 471.24 305.482C472.102 304.009 473.269 302.875 474.742 302.082C476.216 301.266 477.859 300.858 479.672 300.858C481.486 300.858 483.129 301.266 484.602 302.082C486.076 302.875 487.232 304.009 488.07 305.482C488.932 306.955 489.362 308.655 489.362 310.582C489.362 312.509 488.92 314.209 488.036 315.682C487.175 317.155 485.996 318.3 484.5 319.116C483.027 319.909 481.372 320.306 479.536 320.306ZM479.536 316.158C480.398 316.158 481.202 315.954 481.95 315.546C482.721 315.115 483.333 314.481 483.786 313.642C484.24 312.803 484.466 311.783 484.466 310.582C484.466 308.791 483.99 307.42 483.038 306.468C482.109 305.493 480.964 305.006 479.604 305.006C478.244 305.006 477.1 305.493 476.17 306.468C475.264 307.42 474.81 308.791 474.81 310.582C474.81 312.373 475.252 313.755 476.136 314.73C477.043 315.682 478.176 316.158 479.536 316.158ZM498.396 305.074V314.186C498.396 314.821 498.543 315.285 498.838 315.58C499.155 315.852 499.676 315.988 500.402 315.988H502.612V320H499.62C495.608 320 493.602 318.051 493.602 314.152V305.074H491.358V301.164H493.602V296.506H498.396V301.164H502.612V305.074H498.396ZM510.795 304.088C511.407 303.091 512.201 302.309 513.175 301.742C514.173 301.175 515.306 300.892 516.575 300.892V305.89H515.317C513.821 305.89 512.688 306.241 511.917 306.944C511.169 307.647 510.795 308.871 510.795 310.616V320H506.035V301.164H510.795V304.088ZM537.292 310.174C537.292 310.854 537.246 311.466 537.156 312.01H523.386C523.499 313.37 523.975 314.435 524.814 315.206C525.652 315.977 526.684 316.362 527.908 316.362C529.676 316.362 530.934 315.603 531.682 314.084H536.816C536.272 315.897 535.229 317.393 533.688 318.572C532.146 319.728 530.254 320.306 528.01 320.306C526.196 320.306 524.564 319.909 523.114 319.116C521.686 318.3 520.564 317.155 519.748 315.682C518.954 314.209 518.558 312.509 518.558 310.582C518.558 308.633 518.954 306.921 519.748 305.448C520.541 303.975 521.652 302.841 523.08 302.048C524.508 301.255 526.151 300.858 528.01 300.858C529.8 300.858 531.398 301.243 532.804 302.014C534.232 302.785 535.331 303.884 536.102 305.312C536.895 306.717 537.292 308.338 537.292 310.174ZM532.362 308.814C532.339 307.59 531.897 306.615 531.036 305.89C530.174 305.142 529.12 304.768 527.874 304.768C526.695 304.768 525.698 305.131 524.882 305.856C524.088 306.559 523.601 307.545 523.42 308.814H532.362ZM162.122 361.582C162.122 359.633 162.519 357.933 163.312 356.482C164.105 355.009 165.205 353.875 166.61 353.082C168.015 352.266 169.625 351.858 171.438 351.858C173.773 351.858 175.699 352.447 177.218 353.626C178.759 354.782 179.791 356.414 180.312 358.522H175.178C174.906 357.706 174.441 357.071 173.784 356.618C173.149 356.142 172.356 355.904 171.404 355.904C170.044 355.904 168.967 356.403 168.174 357.4C167.381 358.375 166.984 359.769 166.984 361.582C166.984 363.373 167.381 364.767 168.174 365.764C168.967 366.739 170.044 367.226 171.404 367.226C173.331 367.226 174.589 366.365 175.178 364.642H180.312C179.791 366.682 178.759 368.303 177.218 369.504C175.677 370.705 173.75 371.306 171.438 371.306C169.625 371.306 168.015 370.909 166.61 370.116C165.205 369.3 164.105 368.167 163.312 366.716C162.519 365.243 162.122 363.531 162.122 361.582ZM192.163 371.306C190.35 371.306 188.718 370.909 187.267 370.116C185.816 369.3 184.672 368.155 183.833 366.682C183.017 365.209 182.609 363.509 182.609 361.582C182.609 359.655 183.028 357.955 183.867 356.482C184.728 355.009 185.896 353.875 187.369 353.082C188.842 352.266 190.486 351.858 192.299 351.858C194.112 351.858 195.756 352.266 197.229 353.082C198.702 353.875 199.858 355.009 200.697 356.482C201.558 357.955 201.989 359.655 201.989 361.582C201.989 363.509 201.547 365.209 200.663 366.682C199.802 368.155 198.623 369.3 197.127 370.116C195.654 370.909 193.999 371.306 192.163 371.306ZM192.163 367.158C193.024 367.158 193.829 366.954 194.577 366.546C195.348 366.115 195.96 365.481 196.413 364.642C196.866 363.803 197.093 362.783 197.093 361.582C197.093 359.791 196.617 358.42 195.665 357.468C194.736 356.493 193.591 356.006 192.231 356.006C190.871 356.006 189.726 356.493 188.797 357.468C187.89 358.42 187.437 359.791 187.437 361.582C187.437 363.373 187.879 364.755 188.763 365.73C189.67 366.682 190.803 367.158 192.163 367.158ZM228.873 351.892C231.185 351.892 233.043 352.606 234.449 354.034C235.877 355.439 236.591 357.411 236.591 359.95V371H231.831V360.596C231.831 359.123 231.457 358.001 230.709 357.23C229.961 356.437 228.941 356.04 227.649 356.04C226.357 356.04 225.325 356.437 224.555 357.23C223.807 358.001 223.433 359.123 223.433 360.596V371H218.673V360.596C218.673 359.123 218.299 358.001 217.551 357.23C216.803 356.437 215.783 356.04 214.491 356.04C213.176 356.04 212.133 356.437 211.363 357.23C210.615 358.001 210.241 359.123 210.241 360.596V371H205.481V352.164H210.241V354.442C210.853 353.649 211.635 353.025 212.587 352.572C213.561 352.119 214.627 351.892 215.783 351.892C217.256 351.892 218.571 352.209 219.727 352.844C220.883 353.456 221.778 354.34 222.413 355.496C223.025 354.408 223.909 353.535 225.065 352.878C226.243 352.221 227.513 351.892 228.873 351.892ZM264.5 351.892C266.812 351.892 268.67 352.606 270.076 354.034C271.504 355.439 272.218 357.411 272.218 359.95V371H267.458V360.596C267.458 359.123 267.084 358.001 266.336 357.23C265.588 356.437 264.568 356.04 263.276 356.04C261.984 356.04 260.952 356.437 260.182 357.23C259.434 358.001 259.06 359.123 259.06 360.596V371H254.3V360.596C254.3 359.123 253.926 358.001 253.178 357.23C252.43 356.437 251.41 356.04 250.118 356.04C248.803 356.04 247.76 356.437 246.99 357.23C246.242 358.001 245.868 359.123 245.868 360.596V371H241.108V352.164H245.868V354.442C246.48 353.649 247.262 353.025 248.214 352.572C249.188 352.119 250.254 351.892 251.41 351.892C252.883 351.892 254.198 352.209 255.354 352.844C256.51 353.456 257.405 354.34 258.04 355.496C258.652 354.408 259.536 353.535 260.692 352.878C261.87 352.221 263.14 351.892 264.5 351.892ZM294.517 352.164V371H289.723V368.62C289.111 369.436 288.306 370.082 287.309 370.558C286.334 371.011 285.269 371.238 284.113 371.238C282.639 371.238 281.336 370.932 280.203 370.32C279.069 369.685 278.174 368.767 277.517 367.566C276.882 366.342 276.565 364.891 276.565 363.214V352.164H281.325V362.534C281.325 364.03 281.699 365.186 282.447 366.002C283.195 366.795 284.215 367.192 285.507 367.192C286.821 367.192 287.853 366.795 288.601 366.002C289.349 365.186 289.723 364.03 289.723 362.534V352.164H294.517ZM309.651 351.892C311.895 351.892 313.709 352.606 315.091 354.034C316.474 355.439 317.165 357.411 317.165 359.95V371H312.405V360.596C312.405 359.1 312.031 357.955 311.283 357.162C310.535 356.346 309.515 355.938 308.223 355.938C306.909 355.938 305.866 356.346 305.095 357.162C304.347 357.955 303.973 359.1 303.973 360.596V371H299.213V352.164H303.973V354.51C304.608 353.694 305.413 353.059 306.387 352.606C307.385 352.13 308.473 351.892 309.651 351.892ZM320.468 361.514C320.468 359.61 320.842 357.921 321.59 356.448C322.36 354.975 323.392 353.841 324.684 353.048C325.998 352.255 327.46 351.858 329.07 351.858C330.475 351.858 331.699 352.141 332.742 352.708C333.807 353.275 334.657 353.989 335.292 354.85V352.164H340.086V371H335.292V368.246C334.68 369.13 333.83 369.867 332.742 370.456C331.676 371.023 330.441 371.306 329.036 371.306C327.449 371.306 325.998 370.898 324.684 370.082C323.392 369.266 322.36 368.121 321.59 366.648C320.842 365.152 320.468 363.441 320.468 361.514ZM335.292 361.582C335.292 360.426 335.065 359.44 334.612 358.624C334.158 357.785 333.546 357.151 332.776 356.72C332.005 356.267 331.178 356.04 330.294 356.04C329.41 356.04 328.594 356.255 327.846 356.686C327.098 357.117 326.486 357.751 326.01 358.59C325.556 359.406 325.33 360.381 325.33 361.514C325.33 362.647 325.556 363.645 326.01 364.506C326.486 365.345 327.098 365.991 327.846 366.444C328.616 366.897 329.432 367.124 330.294 367.124C331.178 367.124 332.005 366.909 332.776 366.478C333.546 366.025 334.158 365.39 334.612 364.574C335.065 363.735 335.292 362.738 335.292 361.582ZM362.517 352.164V371H357.723V368.62C357.111 369.436 356.306 370.082 355.309 370.558C354.334 371.011 353.269 371.238 352.113 371.238C350.639 371.238 349.336 370.932 348.203 370.32C347.069 369.685 346.174 368.767 345.517 367.566C344.882 366.342 344.565 364.891 344.565 363.214V352.164H349.325V362.534C349.325 364.03 349.699 365.186 350.447 366.002C351.195 366.795 352.215 367.192 353.507 367.192C354.821 367.192 355.853 366.795 356.601 366.002C357.349 365.186 357.723 364.03 357.723 362.534V352.164H362.517ZM372.755 356.074V365.186C372.755 365.821 372.903 366.285 373.197 366.58C373.515 366.852 374.036 366.988 374.761 366.988H376.971V371H373.979C369.967 371 367.961 369.051 367.961 365.152V356.074H365.717V352.164H367.961V347.506H372.755V352.164H376.971V356.074H372.755ZM397.905 361.174C397.905 361.854 397.859 362.466 397.769 363.01H383.999C384.112 364.37 384.588 365.435 385.427 366.206C386.265 366.977 387.297 367.362 388.521 367.362C390.289 367.362 391.547 366.603 392.295 365.084H397.429C396.885 366.897 395.842 368.393 394.301 369.572C392.759 370.728 390.867 371.306 388.623 371.306C386.809 371.306 385.177 370.909 383.727 370.116C382.299 369.3 381.177 368.155 380.361 366.682C379.567 365.209 379.171 363.509 379.171 361.582C379.171 359.633 379.567 357.921 380.361 356.448C381.154 354.975 382.265 353.841 383.693 353.048C385.121 352.255 386.764 351.858 388.623 351.858C390.413 351.858 392.011 352.243 393.417 353.014C394.845 353.785 395.944 354.884 396.715 356.312C397.508 357.717 397.905 359.338 397.905 361.174ZM392.975 359.814C392.952 358.59 392.51 357.615 391.649 356.89C390.787 356.142 389.733 355.768 388.487 355.768C387.308 355.768 386.311 356.131 385.495 356.856C384.701 357.559 384.214 358.545 384.033 359.814H392.975ZM392.261 347.2L384.441 350.77V347.37L392.261 343.324V347.2ZM408.257 361.514C408.257 359.61 408.631 357.921 409.379 356.448C410.149 354.975 411.192 353.841 412.507 353.048C413.821 352.255 415.283 351.858 416.893 351.858C418.117 351.858 419.284 352.13 420.395 352.674C421.505 353.195 422.389 353.898 423.047 354.782V345.84H427.875V371H423.047V368.212C422.457 369.141 421.63 369.889 420.565 370.456C419.499 371.023 418.264 371.306 416.859 371.306C415.272 371.306 413.821 370.898 412.507 370.082C411.192 369.266 410.149 368.121 409.379 366.648C408.631 365.152 408.257 363.441 408.257 361.514ZM423.081 361.582C423.081 360.426 422.854 359.44 422.401 358.624C421.947 357.785 421.335 357.151 420.565 356.72C419.794 356.267 418.967 356.04 418.083 356.04C417.199 356.04 416.383 356.255 415.635 356.686C414.887 357.117 414.275 357.751 413.799 358.59C413.345 359.406 413.119 360.381 413.119 361.514C413.119 362.647 413.345 363.645 413.799 364.506C414.275 365.345 414.887 365.991 415.635 366.444C416.405 366.897 417.221 367.124 418.083 367.124C418.967 367.124 419.794 366.909 420.565 366.478C421.335 366.025 421.947 365.39 422.401 364.574C422.854 363.735 423.081 362.738 423.081 361.582ZM450.034 361.174C450.034 361.854 449.988 362.466 449.898 363.01H436.128C436.241 364.37 436.717 365.435 437.556 366.206C438.394 366.977 439.426 367.362 440.65 367.362C442.418 367.362 443.676 366.603 444.424 365.084H449.558C449.014 366.897 447.971 368.393 446.43 369.572C444.888 370.728 442.996 371.306 440.752 371.306C438.938 371.306 437.306 370.909 435.856 370.116C434.428 369.3 433.306 368.155 432.49 366.682C431.696 365.209 431.3 363.509 431.3 361.582C431.3 359.633 431.696 357.921 432.49 356.448C433.283 354.975 434.394 353.841 435.822 353.048C437.25 352.255 438.893 351.858 440.752 351.858C442.542 351.858 444.14 352.243 445.546 353.014C446.974 353.785 448.073 354.884 448.844 356.312C449.637 357.717 450.034 359.338 450.034 361.174ZM445.104 359.814C445.081 358.59 444.639 357.615 443.778 356.89C442.916 356.142 441.862 355.768 440.616 355.768C439.437 355.768 438.44 356.131 437.624 356.856C436.83 357.559 436.343 358.545 436.162 359.814H445.104ZM162.122 412.582C162.122 410.633 162.519 408.933 163.312 407.482C164.105 406.009 165.205 404.875 166.61 404.082C168.015 403.266 169.625 402.858 171.438 402.858C173.773 402.858 175.699 403.447 177.218 404.626C178.759 405.782 179.791 407.414 180.312 409.522H175.178C174.906 408.706 174.441 408.071 173.784 407.618C173.149 407.142 172.356 406.904 171.404 406.904C170.044 406.904 168.967 407.403 168.174 408.4C167.381 409.375 166.984 410.769 166.984 412.582C166.984 414.373 167.381 415.767 168.174 416.764C168.967 417.739 170.044 418.226 171.404 418.226C173.331 418.226 174.589 417.365 175.178 415.642H180.312C179.791 417.682 178.759 419.303 177.218 420.504C175.677 421.705 173.75 422.306 171.438 422.306C169.625 422.306 168.015 421.909 166.61 421.116C165.205 420.3 164.105 419.167 163.312 417.716C162.519 416.243 162.122 414.531 162.122 412.582ZM194.407 402.892C195.835 402.892 197.104 403.209 198.215 403.844C199.326 404.456 200.187 405.374 200.799 406.598C201.434 407.799 201.751 409.25 201.751 410.95V422H196.991V411.596C196.991 410.1 196.617 408.955 195.869 408.162C195.121 407.346 194.101 406.938 192.809 406.938C191.494 406.938 190.452 407.346 189.681 408.162C188.933 408.955 188.559 410.1 188.559 411.596V422H183.799V396.84H188.559V405.51C189.171 404.694 189.987 404.059 191.007 403.606C192.027 403.13 193.16 402.892 194.407 402.892ZM205.054 412.514C205.054 410.61 205.428 408.921 206.176 407.448C206.946 405.975 207.978 404.841 209.27 404.048C210.584 403.255 212.046 402.858 213.656 402.858C215.061 402.858 216.285 403.141 217.328 403.708C218.393 404.275 219.243 404.989 219.878 405.85V403.164H224.672V422H219.878V419.246C219.266 420.13 218.416 420.867 217.328 421.456C216.262 422.023 215.027 422.306 213.622 422.306C212.035 422.306 210.584 421.898 209.27 421.082C207.978 420.266 206.946 419.121 206.176 417.648C205.428 416.152 205.054 414.441 205.054 412.514ZM219.878 412.582C219.878 411.426 219.651 410.44 219.198 409.624C218.744 408.785 218.132 408.151 217.362 407.72C216.591 407.267 215.764 407.04 214.88 407.04C213.996 407.04 213.18 407.255 212.432 407.686C211.684 408.117 211.072 408.751 210.596 409.59C210.142 410.406 209.916 411.381 209.916 412.514C209.916 413.647 210.142 414.645 210.596 415.506C211.072 416.345 211.684 416.991 212.432 417.444C213.202 417.897 214.018 418.124 214.88 418.124C215.764 418.124 216.591 417.909 217.362 417.478C218.132 417.025 218.744 416.39 219.198 415.574C219.651 414.735 219.878 413.738 219.878 412.582ZM234.081 406.088C234.693 405.091 235.486 404.309 236.461 403.742C237.458 403.175 238.591 402.892 239.861 402.892V407.89H238.603C237.107 407.89 235.973 408.241 235.203 408.944C234.455 409.647 234.081 410.871 234.081 412.616V422H229.321V403.164H234.081V406.088ZM245.481 400.92C244.642 400.92 243.939 400.659 243.373 400.138C242.829 399.594 242.557 398.925 242.557 398.132C242.557 397.339 242.829 396.681 243.373 396.16C243.939 395.616 244.642 395.344 245.481 395.344C246.319 395.344 247.011 395.616 247.555 396.16C248.121 396.681 248.405 397.339 248.405 398.132C248.405 398.925 248.121 399.594 247.555 400.138C247.011 400.659 246.319 400.92 245.481 400.92ZM247.827 403.164V422H243.067V403.164H247.827ZM258.072 407.074V416.186C258.072 416.821 258.219 417.285 258.514 417.58C258.831 417.852 259.352 417.988 260.078 417.988H262.288V422H259.296C255.284 422 253.278 420.051 253.278 416.152V407.074H251.034V403.164H253.278V398.506H258.072V403.164H262.288V407.074H258.072ZM283.221 412.174C283.221 412.854 283.176 413.466 283.085 414.01H269.315C269.429 415.37 269.905 416.435 270.743 417.206C271.582 417.977 272.613 418.362 273.837 418.362C275.605 418.362 276.863 417.603 277.611 416.084H282.745C282.201 417.897 281.159 419.393 279.617 420.572C278.076 421.728 276.183 422.306 273.939 422.306C272.126 422.306 270.494 421.909 269.043 421.116C267.615 420.3 266.493 419.155 265.677 417.682C264.884 416.209 264.487 414.509 264.487 412.582C264.487 410.633 264.884 408.921 265.677 407.448C266.471 405.975 267.581 404.841 269.009 404.048C270.437 403.255 272.081 402.858 273.939 402.858C275.73 402.858 277.328 403.243 278.733 404.014C280.161 404.785 281.261 405.884 282.031 407.312C282.825 408.717 283.221 410.338 283.221 412.174ZM278.291 410.814C278.269 409.59 277.827 408.615 276.965 407.89C276.104 407.142 275.05 406.768 273.803 406.768C272.625 406.768 271.627 407.131 270.811 407.856C270.018 408.559 269.531 409.545 269.349 410.814H278.291ZM277.577 398.2L269.757 401.77V398.37L277.577 394.324V398.2ZM288.804 422.238C287.942 422.238 287.228 421.977 286.662 421.456C286.118 420.912 285.846 420.243 285.846 419.45C285.846 418.657 286.118 417.999 286.662 417.478C287.228 416.934 287.942 416.662 288.804 416.662C289.642 416.662 290.334 416.934 290.878 417.478C291.422 417.999 291.694 418.657 291.694 419.45C291.694 420.243 291.422 420.912 290.878 421.456C290.334 421.977 289.642 422.238 288.804 422.238ZM315.869 422L310.633 412.752H308.389V422H303.629V398.268H312.537C314.373 398.268 315.937 398.597 317.229 399.254C318.521 399.889 319.485 400.761 320.119 401.872C320.777 402.96 321.105 404.184 321.105 405.544C321.105 407.108 320.652 408.525 319.745 409.794C318.839 411.041 317.49 411.902 315.699 412.378L321.377 422H315.869ZM308.389 409.182H312.367C313.659 409.182 314.623 408.876 315.257 408.264C315.892 407.629 316.209 406.757 316.209 405.646C316.209 404.558 315.892 403.719 315.257 403.13C314.623 402.518 313.659 402.212 312.367 402.212H308.389V409.182ZM342.92 412.174C342.92 412.854 342.875 413.466 342.784 414.01H329.014C329.128 415.37 329.604 416.435 330.442 417.206C331.281 417.977 332.312 418.362 333.536 418.362C335.304 418.362 336.562 417.603 337.31 416.084H342.444C341.9 417.897 340.858 419.393 339.316 420.572C337.775 421.728 335.882 422.306 333.638 422.306C331.825 422.306 330.193 421.909 328.742 421.116C327.314 420.3 326.192 419.155 325.376 417.682C324.583 416.209 324.186 414.509 324.186 412.582C324.186 410.633 324.583 408.921 325.376 407.448C326.17 405.975 327.28 404.841 328.708 404.048C330.136 403.255 331.78 402.858 333.638 402.858C335.429 402.858 337.027 403.243 338.432 404.014C339.86 404.785 340.96 405.884 341.73 407.312C342.524 408.717 342.92 410.338 342.92 412.174ZM337.99 410.814C337.968 409.59 337.526 408.615 336.664 407.89C335.803 407.142 334.749 406.768 333.502 406.768C332.324 406.768 331.326 407.131 330.51 407.856C329.717 408.559 329.23 409.545 329.048 410.814H337.99ZM348.809 400.92C347.947 400.92 347.233 400.659 346.667 400.138C346.123 399.594 345.851 398.925 345.851 398.132C345.851 397.339 346.123 396.681 346.667 396.16C347.233 395.616 347.947 395.344 348.809 395.344C349.647 395.344 350.339 395.616 350.883 396.16C351.427 396.681 351.699 397.339 351.699 398.132C351.699 398.925 351.427 399.594 350.883 400.138C350.339 400.659 349.647 400.92 348.809 400.92ZM351.155 425.094C351.155 427.179 350.633 428.675 349.591 429.582C348.571 430.511 347.097 430.976 345.171 430.976H343.063V426.93H344.423C345.148 426.93 345.658 426.783 345.953 426.488C346.247 426.216 346.395 425.763 346.395 425.128V403.164H351.155V425.094ZM364.222 422.306C362.408 422.306 360.776 421.909 359.326 421.116C357.875 420.3 356.73 419.155 355.892 417.682C355.076 416.209 354.668 414.509 354.668 412.582C354.668 410.655 355.087 408.955 355.926 407.482C356.787 406.009 357.954 404.875 359.428 404.082C360.901 403.266 362.544 402.858 364.358 402.858C366.171 402.858 367.814 403.266 369.288 404.082C370.761 404.875 371.917 406.009 372.756 407.482C373.617 408.955 374.048 410.655 374.048 412.582C374.048 414.509 373.606 416.209 372.722 417.682C371.86 419.155 370.682 420.3 369.186 421.116C367.712 421.909 366.058 422.306 364.222 422.306ZM364.222 418.158C365.083 418.158 365.888 417.954 366.636 417.546C367.406 417.115 368.018 416.481 368.472 415.642C368.925 414.803 369.152 413.783 369.152 412.582C369.152 410.791 368.676 409.42 367.724 408.468C366.794 407.493 365.65 407.006 364.29 407.006C362.93 407.006 361.785 407.493 360.856 408.468C359.949 409.42 359.496 410.791 359.496 412.582C359.496 414.373 359.938 415.755 360.822 416.73C361.728 417.682 362.862 418.158 364.222 418.158ZM379.953 400.92C379.115 400.92 378.412 400.659 377.845 400.138C377.301 399.594 377.029 398.925 377.029 398.132C377.029 397.339 377.301 396.681 377.845 396.16C378.412 395.616 379.115 395.344 379.953 395.344C380.792 395.344 381.483 395.616 382.027 396.16C382.594 396.681 382.877 397.339 382.877 398.132C382.877 398.925 382.594 399.594 382.027 400.138C381.483 400.659 380.792 400.92 379.953 400.92ZM382.299 403.164V422H377.539V403.164H382.299ZM394.38 402.858C395.786 402.858 397.021 403.141 398.086 403.708C399.152 404.252 399.99 404.966 400.602 405.85V403.164H405.396V422.136C405.396 423.881 405.045 425.434 404.342 426.794C403.64 428.177 402.586 429.265 401.18 430.058C399.775 430.874 398.075 431.282 396.08 431.282C393.406 431.282 391.207 430.659 389.484 429.412C387.784 428.165 386.821 426.465 386.594 424.312H391.32C391.57 425.173 392.102 425.853 392.918 426.352C393.757 426.873 394.766 427.134 395.944 427.134C397.327 427.134 398.449 426.715 399.31 425.876C400.172 425.06 400.602 423.813 400.602 422.136V419.212C399.99 420.096 399.14 420.833 398.052 421.422C396.987 422.011 395.763 422.306 394.38 422.306C392.794 422.306 391.343 421.898 390.028 421.082C388.714 420.266 387.671 419.121 386.9 417.648C386.152 416.152 385.778 414.441 385.778 412.514C385.778 410.61 386.152 408.921 386.9 407.448C387.671 405.975 388.702 404.841 389.994 404.048C391.309 403.255 392.771 402.858 394.38 402.858ZM400.602 412.582C400.602 411.426 400.376 410.44 399.922 409.624C399.469 408.785 398.857 408.151 398.086 407.72C397.316 407.267 396.488 407.04 395.604 407.04C394.72 407.04 393.904 407.255 393.156 407.686C392.408 408.117 391.796 408.751 391.32 409.59C390.867 410.406 390.64 411.381 390.64 412.514C390.64 413.647 390.867 414.645 391.32 415.506C391.796 416.345 392.408 416.991 393.156 417.444C393.927 417.897 394.743 418.124 395.604 418.124C396.488 418.124 397.316 417.909 398.086 417.478C398.857 417.025 399.469 416.39 399.922 415.574C400.376 414.735 400.602 413.738 400.602 412.582ZM420.483 402.892C422.727 402.892 424.541 403.606 425.923 405.034C427.306 406.439 427.997 408.411 427.997 410.95V422H423.237V411.596C423.237 410.1 422.863 408.955 422.115 408.162C421.367 407.346 420.347 406.938 419.055 406.938C417.741 406.938 416.698 407.346 415.927 408.162C415.179 408.955 414.805 410.1 414.805 411.596V422H410.045V403.164H414.805V405.51C415.44 404.694 416.245 404.059 417.219 403.606C418.217 403.13 419.305 402.892 420.483 402.892ZM450.034 412.174C450.034 412.854 449.988 413.466 449.898 414.01H436.128C436.241 415.37 436.717 416.435 437.556 417.206C438.394 417.977 439.426 418.362 440.65 418.362C442.418 418.362 443.676 417.603 444.424 416.084H449.558C449.014 417.897 447.971 419.393 446.43 420.572C444.888 421.728 442.996 422.306 440.752 422.306C438.938 422.306 437.306 421.909 435.856 421.116C434.428 420.3 433.306 419.155 432.49 417.682C431.696 416.209 431.3 414.509 431.3 412.582C431.3 410.633 431.696 408.921 432.49 407.448C433.283 405.975 434.394 404.841 435.822 404.048C437.25 403.255 438.893 402.858 440.752 402.858C442.542 402.858 444.14 403.243 445.546 404.014C446.974 404.785 448.073 405.884 448.844 407.312C449.637 408.717 450.034 410.338 450.034 412.174ZM445.104 410.814C445.081 409.59 444.639 408.615 443.778 407.89C442.916 407.142 441.862 406.768 440.616 406.768C439.437 406.768 438.44 407.131 437.624 407.856C436.83 408.559 436.343 409.545 436.162 410.814H445.104ZM457.86 418.09H466.258V422H452.454V418.158L460.682 407.074H452.488V403.164H466.156V407.006L457.86 418.09ZM484.428 407.856V411.868H470.012V407.856H484.428ZM500.204 402.892C502.448 402.892 504.261 403.606 505.644 405.034C507.027 406.439 507.718 408.411 507.718 410.95V422H502.958V411.596C502.958 410.1 502.584 408.955 501.836 408.162C501.088 407.346 500.068 406.938 498.776 406.938C497.461 406.938 496.419 407.346 495.648 408.162C494.9 408.955 494.526 410.1 494.526 411.596V422H489.766V403.164H494.526V405.51C495.161 404.694 495.965 404.059 496.94 403.606C497.937 403.13 499.025 402.892 500.204 402.892ZM520.608 422.306C518.795 422.306 517.163 421.909 515.712 421.116C514.262 420.3 513.117 419.155 512.278 417.682C511.462 416.209 511.054 414.509 511.054 412.582C511.054 410.655 511.474 408.955 512.312 407.482C513.174 406.009 514.341 404.875 515.814 404.082C517.288 403.266 518.931 402.858 520.744 402.858C522.558 402.858 524.201 403.266 525.674 404.082C527.148 404.875 528.304 406.009 529.142 407.482C530.004 408.955 530.434 410.655 530.434 412.582C530.434 414.509 529.992 416.209 529.108 417.682C528.247 419.155 527.068 420.3 525.572 421.116C524.099 421.909 522.444 422.306 520.608 422.306ZM520.608 418.158C521.47 418.158 522.274 417.954 523.022 417.546C523.793 417.115 524.405 416.481 524.858 415.642C525.312 414.803 525.538 413.783 525.538 412.582C525.538 410.791 525.062 409.42 524.11 408.468C523.181 407.493 522.036 407.006 520.676 407.006C519.316 407.006 518.172 407.493 517.242 408.468C516.336 409.42 515.882 410.791 515.882 412.582C515.882 414.373 516.324 415.755 517.208 416.73C518.115 417.682 519.248 418.158 520.608 418.158ZM551.708 403.164V422H546.914V419.62C546.302 420.436 545.497 421.082 544.5 421.558C543.525 422.011 542.46 422.238 541.304 422.238C539.831 422.238 538.527 421.932 537.394 421.32C536.261 420.685 535.365 419.767 534.708 418.566C534.073 417.342 533.756 415.891 533.756 414.214V403.164H538.516V413.534C538.516 415.03 538.89 416.186 539.638 417.002C540.386 417.795 541.406 418.192 542.698 418.192C544.013 418.192 545.044 417.795 545.792 417.002C546.54 416.186 546.914 415.03 546.914 413.534V403.164H551.708ZM563.613 422.306C562.071 422.306 560.689 422.034 559.465 421.49C558.241 420.923 557.266 420.164 556.541 419.212C555.838 418.26 555.453 417.206 555.385 416.05H560.179C560.269 416.775 560.621 417.376 561.233 417.852C561.867 418.328 562.649 418.566 563.579 418.566C564.485 418.566 565.188 418.385 565.687 418.022C566.208 417.659 566.469 417.195 566.469 416.628C566.469 416.016 566.151 415.563 565.517 415.268C564.905 414.951 563.919 414.611 562.559 414.248C561.153 413.908 559.997 413.557 559.091 413.194C558.207 412.831 557.436 412.276 556.779 411.528C556.144 410.78 555.827 409.771 555.827 408.502C555.827 407.459 556.121 406.507 556.711 405.646C557.323 404.785 558.184 404.105 559.295 403.606C560.428 403.107 561.754 402.858 563.273 402.858C565.517 402.858 567.307 403.425 568.645 404.558C569.982 405.669 570.719 407.176 570.855 409.08H566.299C566.231 408.332 565.913 407.743 565.347 407.312C564.803 406.859 564.066 406.632 563.137 406.632C562.275 406.632 561.607 406.791 561.131 407.108C560.677 407.425 560.451 407.867 560.451 408.434C560.451 409.069 560.768 409.556 561.403 409.896C562.037 410.213 563.023 410.542 564.361 410.882C565.721 411.222 566.843 411.573 567.727 411.936C568.611 412.299 569.37 412.865 570.005 413.636C570.662 414.384 571.002 415.381 571.025 416.628C571.025 417.716 570.719 418.691 570.107 419.552C569.517 420.413 568.656 421.093 567.523 421.592C566.412 422.068 565.109 422.306 563.613 422.306ZM162.122 463.514C162.122 461.61 162.496 459.921 163.244 458.448C164.015 456.975 165.057 455.841 166.372 455.048C167.687 454.255 169.149 453.858 170.758 453.858C171.982 453.858 173.149 454.13 174.26 454.674C175.371 455.195 176.255 455.898 176.912 456.782V447.84H181.74V473H176.912V470.212C176.323 471.141 175.495 471.889 174.43 472.456C173.365 473.023 172.129 473.306 170.724 473.306C169.137 473.306 167.687 472.898 166.372 472.082C165.057 471.266 164.015 470.121 163.244 468.648C162.496 467.152 162.122 465.441 162.122 463.514ZM176.946 463.582C176.946 462.426 176.719 461.44 176.266 460.624C175.813 459.785 175.201 459.151 174.43 458.72C173.659 458.267 172.832 458.04 171.948 458.04C171.064 458.04 170.248 458.255 169.5 458.686C168.752 459.117 168.14 459.751 167.664 460.59C167.211 461.406 166.984 462.381 166.984 463.514C166.984 464.647 167.211 465.645 167.664 466.506C168.14 467.345 168.752 467.991 169.5 468.444C170.271 468.897 171.087 469.124 171.948 469.124C172.832 469.124 173.659 468.909 174.43 468.478C175.201 468.025 175.813 467.39 176.266 466.574C176.719 465.735 176.946 464.738 176.946 463.582ZM185.165 463.514C185.165 461.61 185.539 459.921 186.287 458.448C187.058 456.975 188.089 455.841 189.381 455.048C190.696 454.255 192.158 453.858 193.767 453.858C195.172 453.858 196.396 454.141 197.439 454.708C198.504 455.275 199.354 455.989 199.989 456.85V454.164H204.783V473H199.989V470.246C199.377 471.13 198.527 471.867 197.439 472.456C196.374 473.023 195.138 473.306 193.733 473.306C192.146 473.306 190.696 472.898 189.381 472.082C188.089 471.266 187.058 470.121 186.287 468.648C185.539 467.152 185.165 465.441 185.165 463.514ZM199.989 463.582C199.989 462.426 199.762 461.44 199.309 460.624C198.856 459.785 198.244 459.151 197.473 458.72C196.702 458.267 195.875 458.04 194.991 458.04C194.107 458.04 193.291 458.255 192.543 458.686C191.795 459.117 191.183 459.751 190.707 460.59C190.254 461.406 190.027 462.381 190.027 463.514C190.027 464.647 190.254 465.645 190.707 466.506C191.183 467.345 191.795 467.991 192.543 468.444C193.314 468.897 194.13 469.124 194.991 469.124C195.875 469.124 196.702 468.909 197.473 468.478C198.244 468.025 198.856 467.39 199.309 466.574C199.762 465.735 199.989 464.738 199.989 463.582ZM219.87 453.892C222.114 453.892 223.927 454.606 225.31 456.034C226.693 457.439 227.384 459.411 227.384 461.95V473H222.624V462.596C222.624 461.1 222.25 459.955 221.502 459.162C220.754 458.346 219.734 457.938 218.442 457.938C217.127 457.938 216.085 458.346 215.314 459.162C214.566 459.955 214.192 461.1 214.192 462.596V473H209.432V454.164H214.192V456.51C214.827 455.694 215.631 455.059 216.606 454.606C217.603 454.13 218.691 453.892 219.87 453.892ZM239.118 473.306C237.577 473.306 236.194 473.034 234.97 472.49C233.746 471.923 232.772 471.164 232.046 470.212C231.344 469.26 230.958 468.206 230.89 467.05H235.684C235.775 467.775 236.126 468.376 236.738 468.852C237.373 469.328 238.155 469.566 239.084 469.566C239.991 469.566 240.694 469.385 241.192 469.022C241.714 468.659 241.974 468.195 241.974 467.628C241.974 467.016 241.657 466.563 241.022 466.268C240.41 465.951 239.424 465.611 238.064 465.248C236.659 464.908 235.503 464.557 234.596 464.194C233.712 463.831 232.942 463.276 232.284 462.528C231.65 461.78 231.332 460.771 231.332 459.502C231.332 458.459 231.627 457.507 232.216 456.646C232.828 455.785 233.69 455.105 234.8 454.606C235.934 454.107 237.26 453.858 238.778 453.858C241.022 453.858 242.813 454.425 244.15 455.558C245.488 456.669 246.224 458.176 246.36 460.08H241.804C241.736 459.332 241.419 458.743 240.852 458.312C240.308 457.859 239.572 457.632 238.642 457.632C237.781 457.632 237.112 457.791 236.636 458.108C236.183 458.425 235.956 458.867 235.956 459.434C235.956 460.069 236.274 460.556 236.908 460.896C237.543 461.213 238.529 461.542 239.866 461.882C241.226 462.222 242.348 462.573 243.232 462.936C244.116 463.299 244.876 463.865 245.51 464.636C246.168 465.384 246.508 466.381 246.53 467.628C246.53 468.716 246.224 469.691 245.612 470.552C245.023 471.413 244.162 472.093 243.028 472.592C241.918 473.068 240.614 473.306 239.118 473.306ZM263.299 447.84V473H258.539V447.84H263.299ZM285.512 463.174C285.512 463.854 285.467 464.466 285.376 465.01H271.606C271.72 466.37 272.196 467.435 273.034 468.206C273.873 468.977 274.904 469.362 276.128 469.362C277.896 469.362 279.154 468.603 279.902 467.084H285.036C284.492 468.897 283.45 470.393 281.908 471.572C280.367 472.728 278.474 473.306 276.23 473.306C274.417 473.306 272.785 472.909 271.334 472.116C269.906 471.3 268.784 470.155 267.968 468.682C267.175 467.209 266.778 465.509 266.778 463.582C266.778 461.633 267.175 459.921 267.968 458.448C268.762 456.975 269.872 455.841 271.3 455.048C272.728 454.255 274.372 453.858 276.23 453.858C278.021 453.858 279.619 454.243 281.024 455.014C282.452 455.785 283.552 456.884 284.322 458.312C285.116 459.717 285.512 461.338 285.512 463.174ZM280.582 461.814C280.56 460.59 280.118 459.615 279.256 458.89C278.395 458.142 277.341 457.768 276.094 457.768C274.916 457.768 273.918 458.131 273.102 458.856C272.309 459.559 271.822 460.545 271.64 461.814H280.582ZM320.48 453.892C322.792 453.892 324.651 454.606 326.056 456.034C327.484 457.439 328.198 459.411 328.198 461.95V473H323.438V462.596C323.438 461.123 323.064 460.001 322.316 459.23C321.568 458.437 320.548 458.04 319.256 458.04C317.964 458.04 316.933 458.437 316.162 459.23C315.414 460.001 315.04 461.123 315.04 462.596V473H310.28V462.596C310.28 461.123 309.906 460.001 309.158 459.23C308.41 458.437 307.39 458.04 306.098 458.04C304.784 458.04 303.741 458.437 302.97 459.23C302.222 460.001 301.848 461.123 301.848 462.596V473H297.088V454.164H301.848V456.442C302.46 455.649 303.242 455.025 304.194 454.572C305.169 454.119 306.234 453.892 307.39 453.892C308.864 453.892 310.178 454.209 311.334 454.844C312.49 455.456 313.386 456.34 314.02 457.496C314.632 456.408 315.516 455.535 316.672 454.878C317.851 454.221 319.12 453.892 320.48 453.892ZM341.079 473.306C339.266 473.306 337.634 472.909 336.183 472.116C334.732 471.3 333.588 470.155 332.749 468.682C331.933 467.209 331.525 465.509 331.525 463.582C331.525 461.655 331.944 459.955 332.783 458.482C333.644 457.009 334.812 455.875 336.285 455.082C337.758 454.266 339.402 453.858 341.215 453.858C343.028 453.858 344.672 454.266 346.145 455.082C347.618 455.875 348.774 457.009 349.613 458.482C350.474 459.955 350.905 461.655 350.905 463.582C350.905 465.509 350.463 467.209 349.579 468.682C348.718 470.155 347.539 471.3 346.043 472.116C344.57 472.909 342.915 473.306 341.079 473.306ZM341.079 469.158C341.94 469.158 342.745 468.954 343.493 468.546C344.264 468.115 344.876 467.481 345.329 466.642C345.782 465.803 346.009 464.783 346.009 463.582C346.009 461.791 345.533 460.42 344.581 459.468C343.652 458.493 342.507 458.006 341.147 458.006C339.787 458.006 338.642 458.493 337.713 459.468C336.806 460.42 336.353 461.791 336.353 463.582C336.353 465.373 336.795 466.755 337.679 467.73C338.586 468.682 339.719 469.158 341.079 469.158ZM364.835 453.892C367.079 453.892 368.892 454.606 370.275 456.034C371.657 457.439 372.349 459.411 372.349 461.95V473H367.589V462.596C367.589 461.1 367.215 459.955 366.467 459.162C365.719 458.346 364.699 457.938 363.407 457.938C362.092 457.938 361.049 458.346 360.279 459.162C359.531 459.955 359.157 461.1 359.157 462.596V473H354.397V454.164H359.157V456.51C359.791 455.694 360.596 455.059 361.571 454.606C362.568 454.13 363.656 453.892 364.835 453.892ZM375.651 463.514C375.651 461.61 376.025 459.921 376.773 458.448C377.544 456.975 378.587 455.841 379.901 455.048C381.216 454.255 382.678 453.858 384.287 453.858C385.511 453.858 386.679 454.13 387.789 454.674C388.9 455.195 389.784 455.898 390.441 456.782V447.84H395.269V473H390.441V470.212C389.852 471.141 389.025 471.889 387.959 472.456C386.894 473.023 385.659 473.306 384.253 473.306C382.667 473.306 381.216 472.898 379.901 472.082C378.587 471.266 377.544 470.121 376.773 468.648C376.025 467.152 375.651 465.441 375.651 463.514ZM390.475 463.582C390.475 462.426 390.249 461.44 389.795 460.624C389.342 459.785 388.73 459.151 387.959 458.72C387.189 458.267 386.361 458.04 385.477 458.04C384.593 458.04 383.777 458.255 383.029 458.686C382.281 459.117 381.669 459.751 381.193 460.59C380.74 461.406 380.513 462.381 380.513 463.514C380.513 464.647 380.74 465.645 381.193 466.506C381.669 467.345 382.281 467.991 383.029 468.444C383.8 468.897 384.616 469.124 385.477 469.124C386.361 469.124 387.189 468.909 387.959 468.478C388.73 468.025 389.342 467.39 389.795 466.574C390.249 465.735 390.475 464.738 390.475 463.582ZM417.428 463.174C417.428 463.854 417.383 464.466 417.292 465.01H403.522C403.636 466.37 404.112 467.435 404.95 468.206C405.789 468.977 406.82 469.362 408.044 469.362C409.812 469.362 411.07 468.603 411.818 467.084H416.952C416.408 468.897 415.366 470.393 413.824 471.572C412.283 472.728 410.39 473.306 408.146 473.306C406.333 473.306 404.701 472.909 403.25 472.116C401.822 471.3 400.7 470.155 399.884 468.682C399.091 467.209 398.694 465.509 398.694 463.582C398.694 461.633 399.091 459.921 399.884 458.448C400.678 456.975 401.788 455.841 403.216 455.048C404.644 454.255 406.288 453.858 408.146 453.858C409.937 453.858 411.535 454.243 412.94 455.014C414.368 455.785 415.468 456.884 416.238 458.312C417.032 459.717 417.428 461.338 417.428 463.174ZM412.498 461.814C412.476 460.59 412.034 459.615 411.172 458.89C410.311 458.142 409.257 457.768 408.01 457.768C406.832 457.768 405.834 458.131 405.018 458.856C404.225 459.559 403.738 460.545 403.556 461.814H412.498ZM427.78 463.514C427.78 461.61 428.154 459.921 428.902 458.448C429.673 456.975 430.716 455.841 432.03 455.048C433.345 454.255 434.807 453.858 436.416 453.858C437.64 453.858 438.808 454.13 439.918 454.674C441.029 455.195 441.913 455.898 442.57 456.782V447.84H447.398V473H442.57V470.212C441.981 471.141 441.154 471.889 440.088 472.456C439.023 473.023 437.788 473.306 436.382 473.306C434.796 473.306 433.345 472.898 432.03 472.082C430.716 471.266 429.673 470.121 428.902 468.648C428.154 467.152 427.78 465.441 427.78 463.514ZM442.604 463.582C442.604 462.426 442.378 461.44 441.924 460.624C441.471 459.785 440.859 459.151 440.088 458.72C439.318 458.267 438.49 458.04 437.606 458.04C436.722 458.04 435.906 458.255 435.158 458.686C434.41 459.117 433.798 459.751 433.322 460.59C432.869 461.406 432.642 462.381 432.642 463.514C432.642 464.647 432.869 465.645 433.322 466.506C433.798 467.345 434.41 467.991 435.158 468.444C435.929 468.897 436.745 469.124 437.606 469.124C438.49 469.124 439.318 468.909 440.088 468.478C440.859 468.025 441.471 467.39 441.924 466.574C442.378 465.735 442.604 464.738 442.604 463.582ZM469.557 463.174C469.557 463.854 469.512 464.466 469.421 465.01H455.651C455.765 466.37 456.241 467.435 457.079 468.206C457.918 468.977 458.949 469.362 460.173 469.362C461.941 469.362 463.199 468.603 463.947 467.084H469.081C468.537 468.897 467.495 470.393 465.953 471.572C464.412 472.728 462.519 473.306 460.275 473.306C458.462 473.306 456.83 472.909 455.379 472.116C453.951 471.3 452.829 470.155 452.013 468.682C451.22 467.209 450.823 465.509 450.823 463.582C450.823 461.633 451.22 459.921 452.013 458.448C452.807 456.975 453.917 455.841 455.345 455.048C456.773 454.255 458.417 453.858 460.275 453.858C462.066 453.858 463.664 454.243 465.069 455.014C466.497 455.785 467.597 456.884 468.367 458.312C469.161 459.717 469.557 461.338 469.557 463.174ZM464.627 461.814C464.605 460.59 464.163 459.615 463.301 458.89C462.44 458.142 461.386 457.768 460.139 457.768C458.961 457.768 457.963 458.131 457.147 458.856C456.354 459.559 455.867 460.545 455.685 461.814H464.627ZM485.893 447.84V473H481.133V447.84H485.893ZM489.372 463.514C489.372 461.61 489.746 459.921 490.494 458.448C491.265 456.975 492.296 455.841 493.588 455.048C494.903 454.255 496.365 453.858 497.974 453.858C499.379 453.858 500.603 454.141 501.646 454.708C502.711 455.275 503.561 455.989 504.196 456.85V454.164H508.99V473H504.196V470.246C503.584 471.13 502.734 471.867 501.646 472.456C500.581 473.023 499.345 473.306 497.94 473.306C496.353 473.306 494.903 472.898 493.588 472.082C492.296 471.266 491.265 470.121 490.494 468.648C489.746 467.152 489.372 465.441 489.372 463.514ZM504.196 463.582C504.196 462.426 503.969 461.44 503.516 460.624C503.063 459.785 502.451 459.151 501.68 458.72C500.909 458.267 500.082 458.04 499.198 458.04C498.314 458.04 497.498 458.255 496.75 458.686C496.002 459.117 495.39 459.751 494.914 460.59C494.461 461.406 494.234 462.381 494.234 463.514C494.234 464.647 494.461 465.645 494.914 466.506C495.39 467.345 496.002 467.991 496.75 468.444C497.521 468.897 498.337 469.124 499.198 469.124C500.082 469.124 500.909 468.909 501.68 468.478C502.451 468.025 503.063 467.39 503.516 466.574C503.969 465.735 504.196 464.738 504.196 463.582ZM162.122 514.582C162.122 512.633 162.519 510.933 163.312 509.482C164.105 508.009 165.205 506.875 166.61 506.082C168.015 505.266 169.625 504.858 171.438 504.858C173.773 504.858 175.699 505.447 177.218 506.626C178.759 507.782 179.791 509.414 180.312 511.522H175.178C174.906 510.706 174.441 510.071 173.784 509.618C173.149 509.142 172.356 508.904 171.404 508.904C170.044 508.904 168.967 509.403 168.174 510.4C167.381 511.375 166.984 512.769 166.984 514.582C166.984 516.373 167.381 517.767 168.174 518.764C168.967 519.739 170.044 520.226 171.404 520.226C173.331 520.226 174.589 519.365 175.178 517.642H180.312C179.791 519.682 178.759 521.303 177.218 522.504C175.677 523.705 173.75 524.306 171.438 524.306C169.625 524.306 168.015 523.909 166.61 523.116C165.205 522.3 164.105 521.167 163.312 519.716C162.519 518.243 162.122 516.531 162.122 514.582ZM194.407 504.892C195.835 504.892 197.104 505.209 198.215 505.844C199.326 506.456 200.187 507.374 200.799 508.598C201.434 509.799 201.751 511.25 201.751 512.95V524H196.991V513.596C196.991 512.1 196.617 510.955 195.869 510.162C195.121 509.346 194.101 508.938 192.809 508.938C191.494 508.938 190.452 509.346 189.681 510.162C188.933 510.955 188.559 512.1 188.559 513.596V524H183.799V498.84H188.559V507.51C189.171 506.694 189.987 506.059 191.007 505.606C192.027 505.13 193.16 504.892 194.407 504.892ZM205.054 514.514C205.054 512.61 205.428 510.921 206.176 509.448C206.946 507.975 207.978 506.841 209.27 506.048C210.584 505.255 212.046 504.858 213.656 504.858C215.061 504.858 216.285 505.141 217.328 505.708C218.393 506.275 219.243 506.989 219.878 507.85V505.164H224.672V524H219.878V521.246C219.266 522.13 218.416 522.867 217.328 523.456C216.262 524.023 215.027 524.306 213.622 524.306C212.035 524.306 210.584 523.898 209.27 523.082C207.978 522.266 206.946 521.121 206.176 519.648C205.428 518.152 205.054 516.441 205.054 514.514ZM219.878 514.582C219.878 513.426 219.651 512.44 219.198 511.624C218.744 510.785 218.132 510.151 217.362 509.72C216.591 509.267 215.764 509.04 214.88 509.04C213.996 509.04 213.18 509.255 212.432 509.686C211.684 510.117 211.072 510.751 210.596 511.59C210.142 512.406 209.916 513.381 209.916 514.514C209.916 515.647 210.142 516.645 210.596 517.506C211.072 518.345 211.684 518.991 212.432 519.444C213.202 519.897 214.018 520.124 214.88 520.124C215.764 520.124 216.591 519.909 217.362 519.478C218.132 519.025 218.744 518.39 219.198 517.574C219.651 516.735 219.878 515.738 219.878 514.582ZM234.081 508.088C234.693 507.091 235.486 506.309 236.461 505.742C237.458 505.175 238.591 504.892 239.861 504.892V509.89H238.603C237.107 509.89 235.973 510.241 235.203 510.944C234.455 511.647 234.081 512.871 234.081 514.616V524H229.321V505.164H234.081V508.088ZM245.481 502.92C244.642 502.92 243.939 502.659 243.373 502.138C242.829 501.594 242.557 500.925 242.557 500.132C242.557 499.339 242.829 498.681 243.373 498.16C243.939 497.616 244.642 497.344 245.481 497.344C246.319 497.344 247.011 497.616 247.555 498.16C248.121 498.681 248.405 499.339 248.405 500.132C248.405 500.925 248.121 501.594 247.555 502.138C247.011 502.659 246.319 502.92 245.481 502.92ZM247.827 505.164V524H243.067V505.164H247.827ZM258.072 509.074V518.186C258.072 518.821 258.219 519.285 258.514 519.58C258.831 519.852 259.352 519.988 260.078 519.988H262.288V524H259.296C255.284 524 253.278 522.051 253.278 518.152V509.074H251.034V505.164H253.278V500.506H258.072V505.164H262.288V509.074H258.072ZM283.221 514.174C283.221 514.854 283.176 515.466 283.085 516.01H269.315C269.429 517.37 269.905 518.435 270.743 519.206C271.582 519.977 272.613 520.362 273.837 520.362C275.605 520.362 276.863 519.603 277.611 518.084H282.745C282.201 519.897 281.159 521.393 279.617 522.572C278.076 523.728 276.183 524.306 273.939 524.306C272.126 524.306 270.494 523.909 269.043 523.116C267.615 522.3 266.493 521.155 265.677 519.682C264.884 518.209 264.487 516.509 264.487 514.582C264.487 512.633 264.884 510.921 265.677 509.448C266.471 507.975 267.581 506.841 269.009 506.048C270.437 505.255 272.081 504.858 273.939 504.858C275.73 504.858 277.328 505.243 278.733 506.014C280.161 506.785 281.261 507.884 282.031 509.312C282.825 510.717 283.221 512.338 283.221 514.174ZM278.291 512.814C278.269 511.59 277.827 510.615 276.965 509.89C276.104 509.142 275.05 508.768 273.803 508.768C272.625 508.768 271.627 509.131 270.811 509.856C270.018 510.559 269.531 511.545 269.349 512.814H278.291ZM277.577 500.2L269.757 503.77V500.37L277.577 496.324V500.2Z" fill="#1E2833"/>
<circle cx="475" cy="609" r="42" fill="#00A4BF"/>
<path d="M496.061 611.061C496.646 610.475 496.646 609.525 496.061 608.939L486.515 599.393C485.929 598.808 484.979 598.808 484.393 599.393C483.808 599.979 483.808 600.929 484.393 601.515L492.879 610L484.393 618.485C483.808 619.071 483.808 620.021 484.393 620.607C484.979 621.192 485.929 621.192 486.515 620.607L496.061 611.061ZM447 611.5H495V608.5H447V611.5Z" fill="white"/>
<defs>
<filter id="filter0_b_985_87" x="32.7635" y="47.8538" width="649.32" height="854.222" filterUnits="userSpaceOnUse" color-interpolation-filters="sRGB">
<feFlood flood-opacity="0" result="BackgroundImageFix"/>
<feGaussianBlur in="BackgroundImageFix" stdDeviation="38.0731"/>
<feComposite in2="SourceAlpha" operator="in" result="effect1_backgroundBlur_985_87"/>
<feBlend mode="normal" in="SourceGraphic" in2="effect1_backgroundBlur_985_87" result="shape"/>
</filter>
<linearGradient id="paint0_linear_985_87" x1="1080" y1="1024" x2="1080" y2="2048" gradientUnits="userSpaceOnUse">
<stop stop-color="#E7DDDB"/>
<stop offset="0.405" stop-color="#D1D7D6"/>
<stop offset="1" stop-color="#11A8C1"/>
</linearGradient>
<linearGradient id="paint1_linear_985_87" x1="186.126" y1="134.028" x2="750.712" y2="328.613" gradientUnits="userSpaceOnUse">
<stop stop-color="#EFEFEF" stop-opacity="0.6"/>
<stop offset="1" stop-color="white" stop-opacity="0.08"/>
</linearGradient>
<linearGradient id="paint2_linear_985_87" x1="133.761" y1="181.157" x2="696.052" y2="329.468" gradientUnits="userSpaceOnUse">
<stop stop-color="white" stop-opacity="0.6"/>
<stop offset="1" stop-color="white" stop-opacity="0.1"/>
</linearGradient>
</defs>
</svg>
