<svg width="44" height="44" viewBox="0 0 44 44" fill="none" xmlns="http://www.w3.org/2000/svg">
<path d="M37.21 6.77916C34.2004 3.77096 30.3664 1.72272 26.1928 0.893471C22.0192 0.0642187 17.6934 0.491189 13.7625 2.12039C9.83151 3.74959 6.47194 6.50785 4.10857 10.0464C1.7452 13.5849 0.484189 17.7448 0.484986 22C0.484985 27.7071 2.75139 33.1807 6.78593 37.2172C10.8205 41.2538 16.2929 43.523 22 43.5258C24.8242 43.527 27.6213 42.975 30.2333 41.9008C32.837 40.8018 35.2054 39.213 37.21 37.2208C39.209 35.2221 40.7948 32.8492 41.8767 30.2376C42.9586 27.626 43.5154 24.8268 43.5154 22C43.5154 19.1732 42.9586 16.374 41.8767 13.7624C40.7948 11.1508 39.209 8.77787 37.21 6.77916ZM35.6933 35.6825C32.5951 38.794 28.5298 40.7579 24.1667 41.2508V27.0375H28.24C28.8146 27.0375 29.3657 26.8092 29.7721 26.4029C30.1784 25.9966 30.4067 25.4455 30.4067 24.8708C30.4067 24.2962 30.1784 23.7451 29.7721 23.3388C29.3657 22.9324 28.8146 22.7042 28.24 22.7042H24.1667V16.7675C24.1667 16.1929 24.3949 15.6418 24.8013 15.2354C25.2076 14.8291 25.7587 14.6008 26.3333 14.6008H28.9333C29.508 14.6008 30.0591 14.3726 30.4654 13.9662C30.8717 13.5599 31.1 13.0088 31.1 12.4342C31.1 11.8595 30.8717 11.3084 30.4654 10.9021C30.0591 10.4958 29.508 10.2675 28.9333 10.2675H25.25C23.8134 10.2675 22.4356 10.8382 21.4198 11.854C20.404 12.8698 19.8333 14.2476 19.8333 15.6842V22.7042H15.7817C15.207 22.7042 14.6559 22.9324 14.2496 23.3388C13.8433 23.7451 13.615 24.2962 13.615 24.8708C13.615 25.4455 13.8433 25.9966 14.2496 26.4029C14.6559 26.8092 15.207 27.0375 15.7817 27.0375H19.8333V41.2508C15.8096 40.7918 12.0318 39.0802 9.03346 36.3578C6.03516 33.6354 3.96793 30.0398 3.12377 26.0789C2.27961 22.1181 2.70118 17.9921 4.32894 14.2838C5.95669 10.5754 8.70837 7.47224 12.1953 5.41247C15.6822 3.35271 19.7281 2.44049 23.7615 2.80467C27.795 3.16885 31.612 4.79102 34.6736 7.44204C37.7352 10.0931 39.8865 13.639 40.8237 17.5789C41.7609 21.5188 41.4366 25.6535 39.8967 29.3992C38.9158 31.7461 37.4883 33.8801 35.6933 35.6825Z" fill="black"/>
</svg>
