<svg width="720" height="1024" viewBox="0 0 720 1024" fill="none" xmlns="http://www.w3.org/2000/svg">
<rect x="720" y="1024" width="720" height="1024" transform="rotate(-180 720 1024)" fill="url(#paint0_linear_1024_102)"/>
<circle cx="525.637" cy="715.171" r="175.829" fill="#F9A0BA"/>
<circle cx="127.6" cy="515.115" r="151.6" fill="#F9A0BA"/>
<circle cx="605.937" cy="245.834" r="88.6065" fill="#F9A0BA"/>
<g filter="url(#filter0_b_1024_102)">
<rect x="108.91" y="124" width="497.027" height="701.93" rx="27.6895" fill="url(#paint1_linear_1024_102)"/>
<rect x="110.294" y="125.384" width="494.258" height="699.161" rx="26.3051" stroke="url(#paint2_linear_1024_102)" stroke-width="2.76895"/>
</g>
<path d="M176.81 307.828C178.147 308.077 179.247 308.746 180.108 309.834C180.969 310.922 181.4 312.169 181.4 313.574C181.4 314.843 181.083 315.965 180.448 316.94C179.836 317.892 178.941 318.64 177.762 319.184C176.583 319.728 175.189 320 173.58 320H163.346V296.268H173.138C174.747 296.268 176.13 296.529 177.286 297.05C178.465 297.571 179.349 298.297 179.938 299.226C180.55 300.155 180.856 301.209 180.856 302.388C180.856 303.771 180.482 304.927 179.734 305.856C179.009 306.785 178.034 307.443 176.81 307.828ZM168.106 306.06H172.458C173.591 306.06 174.464 305.811 175.076 305.312C175.688 304.791 175.994 304.054 175.994 303.102C175.994 302.15 175.688 301.413 175.076 300.892C174.464 300.371 173.591 300.11 172.458 300.11H168.106V306.06ZM172.9 316.124C174.056 316.124 174.951 315.852 175.586 315.308C176.243 314.764 176.572 313.993 176.572 312.996C176.572 311.976 176.232 311.183 175.552 310.616C174.872 310.027 173.954 309.732 172.798 309.732H168.106V316.124H172.9ZM187.608 298.92C186.769 298.92 186.066 298.659 185.5 298.138C184.956 297.594 184.684 296.925 184.684 296.132C184.684 295.339 184.956 294.681 185.5 294.16C186.066 293.616 186.769 293.344 187.608 293.344C188.446 293.344 189.138 293.616 189.682 294.16C190.248 294.681 190.532 295.339 190.532 296.132C190.532 296.925 190.248 297.594 189.682 298.138C189.138 298.659 188.446 298.92 187.608 298.92ZM189.954 301.164V320H185.194V301.164H189.954ZM212.167 310.174C212.167 310.854 212.121 311.466 212.031 312.01H198.261C198.374 313.37 198.85 314.435 199.689 315.206C200.527 315.977 201.559 316.362 202.783 316.362C204.551 316.362 205.809 315.603 206.557 314.084H211.691C211.147 315.897 210.104 317.393 208.563 318.572C207.021 319.728 205.129 320.306 202.885 320.306C201.071 320.306 199.439 319.909 197.989 319.116C196.561 318.3 195.439 317.155 194.623 315.682C193.829 314.209 193.433 312.509 193.433 310.582C193.433 308.633 193.829 306.921 194.623 305.448C195.416 303.975 196.527 302.841 197.955 302.048C199.383 301.255 201.026 300.858 202.885 300.858C204.675 300.858 206.273 301.243 207.679 302.014C209.107 302.785 210.206 303.884 210.977 305.312C211.77 306.717 212.167 308.338 212.167 310.174ZM207.237 308.814C207.214 307.59 206.772 306.615 205.911 305.89C205.049 305.142 203.995 304.768 202.749 304.768C201.57 304.768 200.573 305.131 199.757 305.856C198.963 306.559 198.476 307.545 198.295 308.814H207.237ZM226.079 300.892C228.323 300.892 230.136 301.606 231.519 303.034C232.902 304.439 233.593 306.411 233.593 308.95V320H228.833V309.596C228.833 308.1 228.459 306.955 227.711 306.162C226.963 305.346 225.943 304.938 224.651 304.938C223.336 304.938 222.294 305.346 221.523 306.162C220.775 306.955 220.401 308.1 220.401 309.596V320H215.641V301.164H220.401V303.51C221.036 302.694 221.84 302.059 222.815 301.606C223.812 301.13 224.9 300.892 226.079 300.892ZM245.973 315.614L250.733 301.164H255.799L248.829 320H243.049L236.113 301.164H241.213L245.973 315.614ZM275.983 310.174C275.983 310.854 275.938 311.466 275.847 312.01H262.077C262.19 313.37 262.666 314.435 263.505 315.206C264.344 315.977 265.375 316.362 266.599 316.362C268.367 316.362 269.625 315.603 270.373 314.084H275.507C274.963 315.897 273.92 317.393 272.379 318.572C270.838 319.728 268.945 320.306 266.701 320.306C264.888 320.306 263.256 319.909 261.805 319.116C260.377 318.3 259.255 317.155 258.439 315.682C257.646 314.209 257.249 312.509 257.249 310.582C257.249 308.633 257.646 306.921 258.439 305.448C259.232 303.975 260.343 302.841 261.771 302.048C263.199 301.255 264.842 300.858 266.701 300.858C268.492 300.858 270.09 301.243 271.495 302.014C272.923 302.785 274.022 303.884 274.793 305.312C275.586 306.717 275.983 308.338 275.983 310.174ZM271.053 308.814C271.03 307.59 270.588 306.615 269.727 305.89C268.866 305.142 267.812 304.768 266.565 304.768C265.386 304.768 264.389 305.131 263.573 305.856C262.78 306.559 262.292 307.545 262.111 308.814H271.053ZM289.895 300.892C292.139 300.892 293.953 301.606 295.335 303.034C296.718 304.439 297.409 306.411 297.409 308.95V320H292.649V309.596C292.649 308.1 292.275 306.955 291.527 306.162C290.779 305.346 289.759 304.938 288.467 304.938C287.153 304.938 286.11 305.346 285.339 306.162C284.591 306.955 284.217 308.1 284.217 309.596V320H279.457V301.164H284.217V303.51C284.852 302.694 285.657 302.059 286.631 301.606C287.629 301.13 288.717 300.892 289.895 300.892ZM319.718 301.164V320H314.924V317.62C314.312 318.436 313.507 319.082 312.51 319.558C311.535 320.011 310.47 320.238 309.314 320.238C307.841 320.238 306.537 319.932 305.404 319.32C304.271 318.685 303.375 317.767 302.718 316.566C302.083 315.342 301.766 313.891 301.766 312.214V301.164H306.526V311.534C306.526 313.03 306.9 314.186 307.648 315.002C308.396 315.795 309.416 316.192 310.708 316.192C312.023 316.192 313.054 315.795 313.802 315.002C314.55 314.186 314.924 313.03 314.924 311.534V301.164H319.718ZM341.924 310.174C341.924 310.854 341.879 311.466 341.788 312.01H328.018C328.132 313.37 328.608 314.435 329.446 315.206C330.285 315.977 331.316 316.362 332.54 316.362C334.308 316.362 335.566 315.603 336.314 314.084H341.448C340.904 315.897 339.862 317.393 338.32 318.572C336.779 319.728 334.886 320.306 332.642 320.306C330.829 320.306 329.197 319.909 327.746 319.116C326.318 318.3 325.196 317.155 324.38 315.682C323.587 314.209 323.19 312.509 323.19 310.582C323.19 308.633 323.587 306.921 324.38 305.448C325.174 303.975 326.284 302.841 327.712 302.048C329.14 301.255 330.784 300.858 332.642 300.858C334.433 300.858 336.031 301.243 337.436 302.014C338.864 302.785 339.964 303.884 340.734 305.312C341.528 306.717 341.924 308.338 341.924 310.174ZM336.994 308.814C336.972 307.59 336.53 306.615 335.668 305.89C334.807 305.142 333.753 304.768 332.506 304.768C331.328 304.768 330.33 305.131 329.514 305.856C328.721 306.559 328.234 307.545 328.052 308.814H336.994ZM359.654 295.86L359.11 312.282H355.098L354.52 295.86H359.654ZM357.206 320.238C356.345 320.238 355.631 319.977 355.064 319.456C354.52 318.912 354.248 318.243 354.248 317.45C354.248 316.657 354.52 315.999 355.064 315.478C355.631 314.934 356.345 314.662 357.206 314.662C358.045 314.662 358.736 314.934 359.28 315.478C359.824 315.999 360.096 316.657 360.096 317.45C360.096 318.243 359.824 318.912 359.28 319.456C358.736 319.977 358.045 320.238 357.206 320.238ZM390.927 303.612C390.927 304.881 390.621 306.071 390.009 307.182C389.42 308.293 388.479 309.188 387.187 309.868C385.918 310.548 384.309 310.888 382.359 310.888H378.381V320H373.621V296.268H382.359C384.195 296.268 385.759 296.585 387.051 297.22C388.343 297.855 389.307 298.727 389.941 299.838C390.599 300.949 390.927 302.207 390.927 303.612ZM382.155 307.046C383.47 307.046 384.445 306.751 385.079 306.162C385.714 305.55 386.031 304.7 386.031 303.612C386.031 301.3 384.739 300.144 382.155 300.144H378.381V307.046H382.155ZM399.067 304.088C399.679 303.091 400.472 302.309 401.447 301.742C402.444 301.175 403.578 300.892 404.847 300.892V305.89H403.589C402.093 305.89 400.96 306.241 400.189 306.944C399.441 307.647 399.067 308.871 399.067 310.616V320H394.307V301.164H399.067V304.088ZM425.563 310.174C425.563 310.854 425.518 311.466 425.427 312.01H411.657C411.77 313.37 412.246 314.435 413.085 315.206C413.924 315.977 414.955 316.362 416.179 316.362C417.947 316.362 419.205 315.603 419.953 314.084H425.087C424.543 315.897 423.5 317.393 421.959 318.572C420.418 319.728 418.525 320.306 416.281 320.306C414.468 320.306 412.836 319.909 411.385 319.116C409.957 318.3 408.835 317.155 408.019 315.682C407.226 314.209 406.829 312.509 406.829 310.582C406.829 308.633 407.226 306.921 408.019 305.448C408.812 303.975 409.923 302.841 411.351 302.048C412.779 301.255 414.422 300.858 416.281 300.858C418.072 300.858 419.67 301.243 421.075 302.014C422.503 302.785 423.602 303.884 424.373 305.312C425.166 306.717 425.563 308.338 425.563 310.174ZM420.633 308.814C420.61 307.59 420.168 306.615 419.307 305.89C418.446 305.142 417.392 304.768 416.145 304.768C414.966 304.768 413.969 305.131 413.153 305.856C412.36 306.559 411.872 307.545 411.691 308.814H420.633ZM416.213 296.914L411.147 299.77V296.302L416.213 293.548L421.245 296.302V299.77L416.213 296.914ZM434.579 305.074V314.186C434.579 314.821 434.727 315.285 435.021 315.58C435.339 315.852 435.86 315.988 436.585 315.988H438.795V320H435.803C431.791 320 429.785 318.051 429.785 314.152V305.074H427.541V301.164H429.785V296.506H434.579V301.164H438.795V305.074H434.579ZM449.097 310.514C449.097 308.61 449.471 306.921 450.219 305.448C450.989 303.975 452.021 302.841 453.313 302.048C454.627 301.255 456.089 300.858 457.699 300.858C459.104 300.858 460.328 301.141 461.371 301.708C462.436 302.275 463.286 302.989 463.921 303.85V301.164H468.715V320H463.921V317.246C463.309 318.13 462.459 318.867 461.371 319.456C460.305 320.023 459.07 320.306 457.665 320.306C456.078 320.306 454.627 319.898 453.313 319.082C452.021 318.266 450.989 317.121 450.219 315.648C449.471 314.152 449.097 312.441 449.097 310.514ZM463.921 310.582C463.921 309.426 463.694 308.44 463.241 307.624C462.787 306.785 462.175 306.151 461.405 305.72C460.634 305.267 459.807 305.04 458.923 305.04C458.039 305.04 457.223 305.255 456.475 305.686C455.727 306.117 455.115 306.751 454.639 307.59C454.185 308.406 453.959 309.381 453.959 310.514C453.959 311.647 454.185 312.645 454.639 313.506C455.115 314.345 455.727 314.991 456.475 315.444C457.245 315.897 458.061 316.124 458.923 316.124C459.807 316.124 460.634 315.909 461.405 315.478C462.175 315.025 462.787 314.39 463.241 313.574C463.694 312.735 463.921 311.738 463.921 310.582ZM463.275 296.438V299.838L455.455 296.268V292.392L463.275 296.438ZM168.106 354.884C168.718 354.023 169.557 353.309 170.622 352.742C171.71 352.153 172.945 351.858 174.328 351.858C175.937 351.858 177.388 352.255 178.68 353.048C179.995 353.841 181.026 354.975 181.774 356.448C182.545 357.899 182.93 359.587 182.93 361.514C182.93 363.441 182.545 365.152 181.774 366.648C181.026 368.121 179.995 369.266 178.68 370.082C177.388 370.898 175.937 371.306 174.328 371.306C172.945 371.306 171.721 371.023 170.656 370.456C169.613 369.889 168.763 369.175 168.106 368.314V379.976H163.346V352.164H168.106V354.884ZM178.068 361.514C178.068 360.381 177.83 359.406 177.354 358.59C176.901 357.751 176.289 357.117 175.518 356.686C174.77 356.255 173.954 356.04 173.07 356.04C172.209 356.04 171.393 356.267 170.622 356.72C169.874 357.151 169.262 357.785 168.786 358.624C168.333 359.463 168.106 360.449 168.106 361.582C168.106 362.715 168.333 363.701 168.786 364.54C169.262 365.379 169.874 366.025 170.622 366.478C171.393 366.909 172.209 367.124 173.07 367.124C173.954 367.124 174.77 366.897 175.518 366.444C176.289 365.991 176.901 365.345 177.354 364.506C177.83 363.667 178.068 362.67 178.068 361.514ZM185.165 361.514C185.165 359.61 185.539 357.921 186.287 356.448C187.058 354.975 188.089 353.841 189.381 353.048C190.696 352.255 192.158 351.858 193.767 351.858C195.172 351.858 196.396 352.141 197.439 352.708C198.504 353.275 199.354 353.989 199.989 354.85V352.164H204.783V371H199.989V368.246C199.377 369.13 198.527 369.867 197.439 370.456C196.374 371.023 195.138 371.306 193.733 371.306C192.146 371.306 190.696 370.898 189.381 370.082C188.089 369.266 187.058 368.121 186.287 366.648C185.539 365.152 185.165 363.441 185.165 361.514ZM199.989 361.582C199.989 360.426 199.762 359.44 199.309 358.624C198.856 357.785 198.244 357.151 197.473 356.72C196.702 356.267 195.875 356.04 194.991 356.04C194.107 356.04 193.291 356.255 192.543 356.686C191.795 357.117 191.183 357.751 190.707 358.59C190.254 359.406 190.027 360.381 190.027 361.514C190.027 362.647 190.254 363.645 190.707 364.506C191.183 365.345 191.795 365.991 192.543 366.444C193.314 366.897 194.13 367.124 194.991 367.124C195.875 367.124 196.702 366.909 197.473 366.478C198.244 366.025 198.856 365.39 199.309 364.574C199.762 363.735 199.989 362.738 199.989 361.582ZM214.192 355.088C214.804 354.091 215.597 353.309 216.572 352.742C217.569 352.175 218.703 351.892 219.972 351.892V356.89H218.714C217.218 356.89 216.085 357.241 215.314 357.944C214.566 358.647 214.192 359.871 214.192 361.616V371H209.432V352.164H214.192V355.088ZM228.72 356.074V365.186C228.72 365.821 228.867 366.285 229.162 366.58C229.479 366.852 230.001 366.988 230.726 366.988H232.936V371H229.944C225.932 371 223.926 369.051 223.926 365.152V356.074H221.682V352.164H223.926V347.506H228.72V352.164H232.936V356.074H228.72ZM235.136 361.514C235.136 359.61 235.51 357.921 236.258 356.448C237.028 354.975 238.06 353.841 239.352 353.048C240.666 352.255 242.128 351.858 243.738 351.858C245.143 351.858 246.367 352.141 247.41 352.708C248.475 353.275 249.325 353.989 249.96 354.85V352.164H254.754V371H249.96V368.246C249.348 369.13 248.498 369.867 247.41 370.456C246.344 371.023 245.109 371.306 243.704 371.306C242.117 371.306 240.666 370.898 239.352 370.082C238.06 369.266 237.028 368.121 236.258 366.648C235.51 365.152 235.136 363.441 235.136 361.514ZM249.96 361.582C249.96 360.426 249.733 359.44 249.28 358.624C248.826 357.785 248.214 357.151 247.444 356.72C246.673 356.267 245.846 356.04 244.962 356.04C244.078 356.04 243.262 356.255 242.514 356.686C241.766 357.117 241.154 357.751 240.678 358.59C240.224 359.406 239.998 360.381 239.998 361.514C239.998 362.647 240.224 363.645 240.678 364.506C241.154 365.345 241.766 365.991 242.514 366.444C243.284 366.897 244.1 367.124 244.962 367.124C245.846 367.124 246.673 366.909 247.444 366.478C248.214 366.025 248.826 365.39 249.28 364.574C249.733 363.735 249.96 362.738 249.96 361.582ZM266.781 351.858C268.186 351.858 269.421 352.141 270.487 352.708C271.552 353.252 272.391 353.966 273.003 354.85V352.164H277.797V371.136C277.797 372.881 277.445 374.434 276.743 375.794C276.04 377.177 274.986 378.265 273.581 379.058C272.175 379.874 270.475 380.282 268.481 380.282C265.806 380.282 263.607 379.659 261.885 378.412C260.185 377.165 259.221 375.465 258.995 373.312H263.721C263.97 374.173 264.503 374.853 265.319 375.352C266.157 375.873 267.166 376.134 268.345 376.134C269.727 376.134 270.849 375.715 271.711 374.876C272.572 374.06 273.003 372.813 273.003 371.136V368.212C272.391 369.096 271.541 369.833 270.453 370.422C269.387 371.011 268.163 371.306 266.781 371.306C265.194 371.306 263.743 370.898 262.429 370.082C261.114 369.266 260.071 368.121 259.301 366.648C258.553 365.152 258.179 363.441 258.179 361.514C258.179 359.61 258.553 357.921 259.301 356.448C260.071 354.975 261.103 353.841 262.395 353.048C263.709 352.255 265.171 351.858 266.781 351.858ZM273.003 361.582C273.003 360.426 272.776 359.44 272.323 358.624C271.869 357.785 271.257 357.151 270.487 356.72C269.716 356.267 268.889 356.04 268.005 356.04C267.121 356.04 266.305 356.255 265.557 356.686C264.809 357.117 264.197 357.751 263.721 358.59C263.267 359.406 263.041 360.381 263.041 361.514C263.041 362.647 263.267 363.645 263.721 364.506C264.197 365.345 264.809 365.991 265.557 366.444C266.327 366.897 267.143 367.124 268.005 367.124C268.889 367.124 269.716 366.909 270.487 366.478C271.257 366.025 271.869 365.39 272.323 364.574C272.776 363.735 273.003 362.738 273.003 361.582ZM299.956 361.174C299.956 361.854 299.91 362.466 299.82 363.01H286.05C286.163 364.37 286.639 365.435 287.478 366.206C288.316 366.977 289.348 367.362 290.572 367.362C292.34 367.362 293.598 366.603 294.346 365.084H299.48C298.936 366.897 297.893 368.393 296.352 369.572C294.81 370.728 292.918 371.306 290.674 371.306C288.86 371.306 287.228 370.909 285.778 370.116C284.35 369.3 283.228 368.155 282.412 366.682C281.618 365.209 281.222 363.509 281.222 361.582C281.222 359.633 281.618 357.921 282.412 356.448C283.205 354.975 284.316 353.841 285.744 353.048C287.172 352.255 288.815 351.858 290.674 351.858C292.464 351.858 294.062 352.243 295.468 353.014C296.896 353.785 297.995 354.884 298.766 356.312C299.559 357.717 299.956 359.338 299.956 361.174ZM295.026 359.814C295.003 358.59 294.561 357.615 293.7 356.89C292.838 356.142 291.784 355.768 290.538 355.768C289.359 355.768 288.362 356.131 287.546 356.856C286.752 357.559 286.265 358.545 286.084 359.814H295.026ZM308.19 355.088C308.802 354.091 309.595 353.309 310.57 352.742C311.567 352.175 312.701 351.892 313.97 351.892V356.89H312.712C311.216 356.89 310.083 357.241 309.312 357.944C308.564 358.647 308.19 359.871 308.19 361.616V371H303.43V352.164H308.19V355.088ZM342.788 361.174C342.788 361.854 342.742 362.466 342.652 363.01H328.882C328.995 364.37 329.471 365.435 330.31 366.206C331.148 366.977 332.18 367.362 333.404 367.362C335.172 367.362 336.43 366.603 337.178 365.084H342.312C341.768 366.897 340.725 368.393 339.184 369.572C337.642 370.728 335.75 371.306 333.506 371.306C331.692 371.306 330.06 370.909 328.61 370.116C327.182 369.3 326.06 368.155 325.244 366.682C324.45 365.209 324.054 363.509 324.054 361.582C324.054 359.633 324.45 357.921 325.244 356.448C326.037 354.975 327.148 353.841 328.576 353.048C330.004 352.255 331.647 351.858 333.506 351.858C335.296 351.858 336.894 352.243 338.3 353.014C339.728 353.785 340.827 354.884 341.598 356.312C342.391 357.717 342.788 359.338 342.788 361.174ZM337.858 359.814C337.835 358.59 337.393 357.615 336.532 356.89C335.67 356.142 334.616 355.768 333.37 355.768C332.191 355.768 331.194 356.131 330.378 356.856C329.584 357.559 329.097 358.545 328.916 359.814H337.858ZM351.804 356.074V365.186C351.804 365.821 351.951 366.285 352.246 366.58C352.563 366.852 353.085 366.988 353.81 366.988H356.02V371H353.028C349.016 371 347.01 369.051 347.01 365.152V356.074H344.766V352.164H347.01V347.506H351.804V352.164H356.02V356.074H351.804ZM366.321 361.514C366.321 359.61 366.695 357.921 367.443 356.448C368.214 354.975 369.245 353.841 370.537 353.048C371.852 352.255 373.314 351.858 374.923 351.858C376.329 351.858 377.553 352.141 378.595 352.708C379.661 353.275 380.511 353.989 381.145 354.85V352.164H385.939V371H381.145V368.246C380.533 369.13 379.683 369.867 378.595 370.456C377.53 371.023 376.295 371.306 374.889 371.306C373.303 371.306 371.852 370.898 370.537 370.082C369.245 369.266 368.214 368.121 367.443 366.648C366.695 365.152 366.321 363.441 366.321 361.514ZM381.145 361.582C381.145 360.426 380.919 359.44 380.465 358.624C380.012 357.785 379.4 357.151 378.629 356.72C377.859 356.267 377.031 356.04 376.147 356.04C375.263 356.04 374.447 356.255 373.699 356.686C372.951 357.117 372.339 357.751 371.863 358.59C371.41 359.406 371.183 360.381 371.183 361.514C371.183 362.647 371.41 363.645 371.863 364.506C372.339 365.345 372.951 365.991 373.699 366.444C374.47 366.897 375.286 367.124 376.147 367.124C377.031 367.124 377.859 366.909 378.629 366.478C379.4 366.025 380.012 365.39 380.465 364.574C380.919 363.735 381.145 362.738 381.145 361.582ZM380.499 347.438V350.838L372.679 347.268V343.392L380.499 347.438ZM397.466 361.514C397.466 359.61 397.84 357.921 398.588 356.448C399.358 354.975 400.39 353.841 401.682 353.048C402.996 352.255 404.458 351.858 406.068 351.858C407.473 351.858 408.697 352.141 409.74 352.708C410.805 353.275 411.655 353.989 412.29 354.85V352.164H417.084V371H412.29V368.246C411.678 369.13 410.828 369.867 409.74 370.456C408.674 371.023 407.439 371.306 406.034 371.306C404.447 371.306 402.996 370.898 401.682 370.082C400.39 369.266 399.358 368.121 398.588 366.648C397.84 365.152 397.466 363.441 397.466 361.514ZM412.29 361.582C412.29 360.426 412.063 359.44 411.61 358.624C411.156 357.785 410.544 357.151 409.774 356.72C409.003 356.267 408.176 356.04 407.292 356.04C406.408 356.04 405.592 356.255 404.844 356.686C404.096 357.117 403.484 357.751 403.008 358.59C402.554 359.406 402.328 360.381 402.328 361.514C402.328 362.647 402.554 363.645 403.008 364.506C403.484 365.345 404.096 365.991 404.844 366.444C405.614 366.897 406.43 367.124 407.292 367.124C408.176 367.124 409.003 366.909 409.774 366.478C410.544 366.025 411.156 365.39 411.61 364.574C412.063 363.735 412.29 362.738 412.29 361.582ZM424.147 349.92C423.308 349.92 422.605 349.659 422.039 349.138C421.495 348.594 421.223 347.925 421.223 347.132C421.223 346.339 421.495 345.681 422.039 345.16C422.605 344.616 423.308 344.344 424.147 344.344C424.985 344.344 425.677 344.616 426.221 345.16C426.787 345.681 427.071 346.339 427.071 347.132C427.071 347.925 426.787 348.594 426.221 349.138C425.677 349.659 424.985 349.92 424.147 349.92ZM426.493 352.164V371H421.733V352.164H426.493ZM429.972 361.514C429.972 359.61 430.346 357.921 431.094 356.448C431.864 354.975 432.907 353.841 434.222 353.048C435.536 352.255 436.998 351.858 438.608 351.858C439.832 351.858 440.999 352.13 442.11 352.674C443.22 353.195 444.104 353.898 444.762 354.782V345.84H449.59V371H444.762V368.212C444.172 369.141 443.345 369.889 442.28 370.456C441.214 371.023 439.979 371.306 438.574 371.306C436.987 371.306 435.536 370.898 434.222 370.082C432.907 369.266 431.864 368.121 431.094 366.648C430.346 365.152 429.972 363.441 429.972 361.514ZM444.796 361.582C444.796 360.426 444.569 359.44 444.116 358.624C443.662 357.785 443.05 357.151 442.28 356.72C441.509 356.267 440.682 356.04 439.798 356.04C438.914 356.04 438.098 356.255 437.35 356.686C436.602 357.117 435.99 357.751 435.514 358.59C435.06 359.406 434.834 360.381 434.834 361.514C434.834 362.647 435.06 363.645 435.514 364.506C435.99 365.345 436.602 365.991 437.35 366.444C438.12 366.897 438.936 367.124 439.798 367.124C440.682 367.124 441.509 366.909 442.28 366.478C443.05 366.025 443.662 365.39 444.116 364.574C444.569 363.735 444.796 362.738 444.796 361.582ZM471.749 361.174C471.749 361.854 471.703 362.466 471.613 363.01H457.843C457.956 364.37 458.432 365.435 459.271 366.206C460.109 366.977 461.141 367.362 462.365 367.362C464.133 367.362 465.391 366.603 466.139 365.084H471.273C470.729 366.897 469.686 368.393 468.145 369.572C466.603 370.728 464.711 371.306 462.467 371.306C460.653 371.306 459.021 370.909 457.571 370.116C456.143 369.3 455.021 368.155 454.205 366.682C453.411 365.209 453.015 363.509 453.015 361.582C453.015 359.633 453.411 357.921 454.205 356.448C454.998 354.975 456.109 353.841 457.537 353.048C458.965 352.255 460.608 351.858 462.467 351.858C464.257 351.858 465.855 352.243 467.261 353.014C468.689 353.785 469.788 354.884 470.559 356.312C471.352 357.717 471.749 359.338 471.749 361.174ZM466.819 359.814C466.796 358.59 466.354 357.615 465.493 356.89C464.631 356.142 463.577 355.768 462.331 355.768C461.152 355.768 460.155 356.131 459.339 356.856C458.545 357.559 458.058 358.545 457.877 359.814H466.819ZM479.983 355.088C480.595 354.091 481.388 353.309 482.363 352.742C483.36 352.175 484.494 351.892 485.763 351.892V356.89H484.505C483.009 356.89 481.876 357.241 481.105 357.944C480.357 358.647 479.983 359.871 479.983 361.616V371H475.223V352.164H479.983V355.088ZM503.701 346.452C506.058 346.452 507.951 347.098 509.379 348.39C510.829 349.659 511.555 351.416 511.555 353.66C511.555 355.881 510.841 357.581 509.413 358.76C507.985 359.916 506.092 360.494 503.735 360.494L503.599 363.112H499.417L499.247 357.332H500.777C502.749 357.332 504.267 357.071 505.333 356.55C506.398 356.029 506.931 355.077 506.931 353.694C506.931 352.697 506.636 351.903 506.047 351.314C505.48 350.725 504.698 350.43 503.701 350.43C502.658 350.43 501.842 350.713 501.253 351.28C500.686 351.847 500.403 352.629 500.403 353.626H495.915C495.892 352.243 496.187 351.008 496.799 349.92C497.411 348.832 498.306 347.982 499.485 347.37C500.686 346.758 502.091 346.452 503.701 346.452ZM501.491 371.238C500.629 371.238 499.915 370.977 499.349 370.456C498.805 369.912 498.533 369.243 498.533 368.45C498.533 367.657 498.805 366.999 499.349 366.478C499.915 365.934 500.629 365.662 501.491 365.662C502.329 365.662 503.021 365.934 503.565 366.478C504.109 366.999 504.381 367.657 504.381 368.45C504.381 369.243 504.109 369.912 503.565 370.456C503.021 370.977 502.329 371.238 501.491 371.238ZM162.19 410.1C162.19 407.765 162.711 405.68 163.754 403.844C164.819 401.985 166.259 400.546 168.072 399.526C169.908 398.483 171.959 397.962 174.226 397.962C176.878 397.962 179.201 398.642 181.196 400.002C183.191 401.362 184.585 403.243 185.378 405.646H179.904C179.36 404.513 178.589 403.663 177.592 403.096C176.617 402.529 175.484 402.246 174.192 402.246C172.809 402.246 171.574 402.575 170.486 403.232C169.421 403.867 168.582 404.773 167.97 405.952C167.381 407.131 167.086 408.513 167.086 410.1C167.086 411.664 167.381 413.047 167.97 414.248C168.582 415.427 169.421 416.345 170.486 417.002C171.574 417.637 172.809 417.954 174.192 417.954C175.484 417.954 176.617 417.671 177.592 417.104C178.589 416.515 179.36 415.653 179.904 414.52H185.378C184.585 416.945 183.191 418.838 181.196 420.198C179.224 421.535 176.901 422.204 174.226 422.204C171.959 422.204 169.908 421.694 168.072 420.674C166.259 419.631 164.819 418.192 163.754 416.356C162.711 414.52 162.19 412.435 162.19 410.1ZM197.808 422.306C195.994 422.306 194.362 421.909 192.912 421.116C191.461 420.3 190.316 419.155 189.478 417.682C188.662 416.209 188.254 414.509 188.254 412.582C188.254 410.655 188.673 408.955 189.512 407.482C190.373 406.009 191.54 404.875 193.014 404.082C194.487 403.266 196.13 402.858 197.944 402.858C199.757 402.858 201.4 403.266 202.874 404.082C204.347 404.875 205.503 406.009 206.342 407.482C207.203 408.955 207.634 410.655 207.634 412.582C207.634 414.509 207.192 416.209 206.308 417.682C205.446 419.155 204.268 420.3 202.772 421.116C201.298 421.909 199.644 422.306 197.808 422.306ZM197.808 418.158C198.669 418.158 199.474 417.954 200.222 417.546C200.992 417.115 201.604 416.481 202.058 415.642C202.511 414.803 202.738 413.783 202.738 412.582C202.738 410.791 202.262 409.42 201.31 408.468C200.38 407.493 199.236 407.006 197.876 407.006C196.516 407.006 195.371 407.493 194.442 408.468C193.535 409.42 193.082 410.791 193.082 412.582C193.082 414.373 193.524 415.755 194.408 416.73C195.314 417.682 196.448 418.158 197.808 418.158ZM221.563 402.892C223.807 402.892 225.621 403.606 227.003 405.034C228.386 406.439 229.077 408.411 229.077 410.95V422H224.317V411.596C224.317 410.1 223.943 408.955 223.195 408.162C222.447 407.346 221.427 406.938 220.135 406.938C218.821 406.938 217.778 407.346 217.007 408.162C216.259 408.955 215.885 410.1 215.885 411.596V422H211.125V403.164H215.885V405.51C216.52 404.694 217.325 404.059 218.299 403.606C219.297 403.13 220.385 402.892 221.563 402.892ZM244.042 402.892C246.286 402.892 248.099 403.606 249.482 405.034C250.864 406.439 251.556 408.411 251.556 410.95V422H246.796V411.596C246.796 410.1 246.422 408.955 245.674 408.162C244.926 407.346 243.906 406.938 242.614 406.938C241.299 406.938 240.256 407.346 239.486 408.162C238.738 408.955 238.364 410.1 238.364 411.596V422H233.604V403.164H238.364V405.51C238.998 404.694 239.803 404.059 240.778 403.606C241.775 403.13 242.863 402.892 244.042 402.892ZM273.592 412.174C273.592 412.854 273.547 413.466 273.456 414.01H259.686C259.8 415.37 260.276 416.435 261.114 417.206C261.953 417.977 262.984 418.362 264.208 418.362C265.976 418.362 267.234 417.603 267.982 416.084H273.116C272.572 417.897 271.53 419.393 269.988 420.572C268.447 421.728 266.554 422.306 264.31 422.306C262.497 422.306 260.865 421.909 259.414 421.116C257.986 420.3 256.864 419.155 256.048 417.682C255.255 416.209 254.858 414.509 254.858 412.582C254.858 410.633 255.255 408.921 256.048 407.448C256.842 405.975 257.952 404.841 259.38 404.048C260.808 403.255 262.452 402.858 264.31 402.858C266.101 402.858 267.699 403.243 269.104 404.014C270.532 404.785 271.632 405.884 272.402 407.312C273.196 408.717 273.592 410.338 273.592 412.174ZM268.662 410.814C268.64 409.59 268.198 408.615 267.336 407.89C266.475 407.142 265.421 406.768 264.174 406.768C262.996 406.768 261.998 407.131 261.182 407.856C260.389 408.559 259.902 409.545 259.72 410.814H268.662ZM275.843 412.582C275.843 410.633 276.239 408.933 277.033 407.482C277.826 406.009 278.925 404.875 280.331 404.082C281.736 403.266 283.345 402.858 285.159 402.858C287.493 402.858 289.42 403.447 290.939 404.626C292.48 405.782 293.511 407.414 294.033 409.522H288.899C288.627 408.706 288.162 408.071 287.505 407.618C286.87 407.142 286.077 406.904 285.125 406.904C283.765 406.904 282.688 407.403 281.895 408.4C281.101 409.375 280.705 410.769 280.705 412.582C280.705 414.373 281.101 415.767 281.895 416.764C282.688 417.739 283.765 418.226 285.125 418.226C287.051 418.226 288.309 417.365 288.899 415.642H294.033C293.511 417.682 292.48 419.303 290.939 420.504C289.397 421.705 287.471 422.306 285.159 422.306C283.345 422.306 281.736 421.909 280.331 421.116C278.925 420.3 277.826 419.167 277.033 417.716C276.239 416.243 275.843 414.531 275.843 412.582ZM303.062 407.074V416.186C303.062 416.821 303.209 417.285 303.504 417.58C303.821 417.852 304.342 417.988 305.068 417.988H307.278V422H304.286C300.274 422 298.268 420.051 298.268 416.152V407.074H296.024V403.164H298.268V398.506H303.062V403.164H307.278V407.074H303.062ZM328.211 412.174C328.211 412.854 328.166 413.466 328.075 414.01H314.305C314.419 415.37 314.895 416.435 315.733 417.206C316.572 417.977 317.603 418.362 318.827 418.362C320.595 418.362 321.853 417.603 322.601 416.084H327.735C327.191 417.897 326.149 419.393 324.607 420.572C323.066 421.728 321.173 422.306 318.929 422.306C317.116 422.306 315.484 421.909 314.033 421.116C312.605 420.3 311.483 419.155 310.667 417.682C309.874 416.209 309.477 414.509 309.477 412.582C309.477 410.633 309.874 408.921 310.667 407.448C311.461 405.975 312.571 404.841 313.999 404.048C315.427 403.255 317.071 402.858 318.929 402.858C320.72 402.858 322.318 403.243 323.723 404.014C325.151 404.785 326.251 405.884 327.021 407.312C327.815 408.717 328.211 410.338 328.211 412.174ZM323.281 410.814C323.259 409.59 322.817 408.615 321.955 407.89C321.094 407.142 320.04 406.768 318.793 406.768C317.615 406.768 316.617 407.131 315.801 407.856C315.008 408.559 314.521 409.545 314.339 410.814H323.281ZM336.038 418.09H344.436V422H330.632V418.158L338.86 407.074H330.666V403.164H344.334V407.006L336.038 418.09ZM362.605 407.856V411.868H348.189V407.856H362.605ZM375.798 417.614L380.558 403.164H385.624L378.654 422H372.874L365.938 403.164H371.038L375.798 417.614ZM396.661 422.306C394.848 422.306 393.216 421.909 391.765 421.116C390.315 420.3 389.17 419.155 388.331 417.682C387.515 416.209 387.107 414.509 387.107 412.582C387.107 410.655 387.527 408.955 388.365 407.482C389.227 406.009 390.394 404.875 391.867 404.082C393.341 403.266 394.984 402.858 396.797 402.858C398.611 402.858 400.254 403.266 401.727 404.082C403.201 404.875 404.357 406.009 405.195 407.482C406.057 408.955 406.487 410.655 406.487 412.582C406.487 414.509 406.045 416.209 405.161 417.682C404.3 419.155 403.121 420.3 401.625 421.116C400.152 421.909 398.497 422.306 396.661 422.306ZM396.661 418.158C397.523 418.158 398.327 417.954 399.075 417.546C399.846 417.115 400.458 416.481 400.911 415.642C401.365 414.803 401.591 413.783 401.591 412.582C401.591 410.791 401.115 409.42 400.163 408.468C399.234 407.493 398.089 407.006 396.729 407.006C395.369 407.006 394.225 407.493 393.295 408.468C392.389 409.42 391.935 410.791 391.935 412.582C391.935 414.373 392.377 415.755 393.261 416.73C394.168 417.682 395.301 418.158 396.661 418.158ZM427.761 403.164V422H422.967V419.62C422.355 420.436 421.55 421.082 420.553 421.558C419.578 422.011 418.513 422.238 417.357 422.238C415.883 422.238 414.58 421.932 413.447 421.32C412.313 420.685 411.418 419.767 410.761 418.566C410.126 417.342 409.809 415.891 409.809 414.214V403.164H414.569V413.534C414.569 415.03 414.943 416.186 415.691 417.002C416.439 417.795 417.459 418.192 418.751 418.192C420.065 418.192 421.097 417.795 421.845 417.002C422.593 416.186 422.967 415.03 422.967 413.534V403.164H427.761ZM439.665 422.306C438.124 422.306 436.741 422.034 435.517 421.49C434.293 420.923 433.319 420.164 432.593 419.212C431.891 418.26 431.505 417.206 431.437 416.05H436.231C436.322 416.775 436.673 417.376 437.285 417.852C437.92 418.328 438.702 418.566 439.631 418.566C440.538 418.566 441.241 418.385 441.739 418.022C442.261 417.659 442.521 417.195 442.521 416.628C442.521 416.016 442.204 415.563 441.569 415.268C440.957 414.951 439.971 414.611 438.611 414.248C437.206 413.908 436.05 413.557 435.143 413.194C434.259 412.831 433.489 412.276 432.831 411.528C432.197 410.78 431.879 409.771 431.879 408.502C431.879 407.459 432.174 406.507 432.763 405.646C433.375 404.785 434.237 404.105 435.347 403.606C436.481 403.107 437.807 402.858 439.325 402.858C441.569 402.858 443.36 403.425 444.697 404.558C446.035 405.669 446.771 407.176 446.907 409.08H442.351C442.283 408.332 441.966 407.743 441.399 407.312C440.855 406.859 440.119 406.632 439.189 406.632C438.328 406.632 437.659 406.791 437.183 407.108C436.73 407.425 436.503 407.867 436.503 408.434C436.503 409.069 436.821 409.556 437.455 409.896C438.09 410.213 439.076 410.542 440.413 410.882C441.773 411.222 442.895 411.573 443.779 411.936C444.663 412.299 445.423 412.865 446.057 413.636C446.715 414.384 447.055 415.381 447.077 416.628C447.077 417.716 446.771 418.691 446.159 419.552C445.57 420.413 444.709 421.093 443.575 421.592C442.465 422.068 441.161 422.306 439.665 422.306ZM168.106 456.884C168.718 456.023 169.557 455.309 170.622 454.742C171.71 454.153 172.945 453.858 174.328 453.858C175.937 453.858 177.388 454.255 178.68 455.048C179.995 455.841 181.026 456.975 181.774 458.448C182.545 459.899 182.93 461.587 182.93 463.514C182.93 465.441 182.545 467.152 181.774 468.648C181.026 470.121 179.995 471.266 178.68 472.082C177.388 472.898 175.937 473.306 174.328 473.306C172.945 473.306 171.721 473.023 170.656 472.456C169.613 471.889 168.763 471.175 168.106 470.314V481.976H163.346V454.164H168.106V456.884ZM178.068 463.514C178.068 462.381 177.83 461.406 177.354 460.59C176.901 459.751 176.289 459.117 175.518 458.686C174.77 458.255 173.954 458.04 173.07 458.04C172.209 458.04 171.393 458.267 170.622 458.72C169.874 459.151 169.262 459.785 168.786 460.624C168.333 461.463 168.106 462.449 168.106 463.582C168.106 464.715 168.333 465.701 168.786 466.54C169.262 467.379 169.874 468.025 170.622 468.478C171.393 468.909 172.209 469.124 173.07 469.124C173.954 469.124 174.77 468.897 175.518 468.444C176.289 467.991 176.901 467.345 177.354 466.506C177.83 465.667 178.068 464.67 178.068 463.514ZM194.753 473.306C192.94 473.306 191.308 472.909 189.857 472.116C188.406 471.3 187.262 470.155 186.423 468.682C185.607 467.209 185.199 465.509 185.199 463.582C185.199 461.655 185.618 459.955 186.457 458.482C187.318 457.009 188.486 455.875 189.959 455.082C191.432 454.266 193.076 453.858 194.889 453.858C196.702 453.858 198.346 454.266 199.819 455.082C201.292 455.875 202.448 457.009 203.287 458.482C204.148 459.955 204.579 461.655 204.579 463.582C204.579 465.509 204.137 467.209 203.253 468.682C202.392 470.155 201.213 471.3 199.717 472.116C198.244 472.909 196.589 473.306 194.753 473.306ZM194.753 469.158C195.614 469.158 196.419 468.954 197.167 468.546C197.938 468.115 198.55 467.481 199.003 466.642C199.456 465.803 199.683 464.783 199.683 463.582C199.683 461.791 199.207 460.42 198.255 459.468C197.326 458.493 196.181 458.006 194.821 458.006C193.461 458.006 192.316 458.493 191.387 459.468C190.48 460.42 190.027 461.791 190.027 463.582C190.027 465.373 190.469 466.755 191.353 467.73C192.26 468.682 193.393 469.158 194.753 469.158ZM225.853 454.164V473H221.059V470.62C220.447 471.436 219.642 472.082 218.645 472.558C217.67 473.011 216.605 473.238 215.449 473.238C213.975 473.238 212.672 472.932 211.539 472.32C210.405 471.685 209.51 470.767 208.853 469.566C208.218 468.342 207.901 466.891 207.901 465.214V454.164H212.661V464.534C212.661 466.03 213.035 467.186 213.783 468.002C214.531 468.795 215.551 469.192 216.843 469.192C218.157 469.192 219.189 468.795 219.937 468.002C220.685 467.186 221.059 466.03 221.059 464.534V454.164H225.853ZM235.309 457.088C235.921 456.091 236.714 455.309 237.689 454.742C238.686 454.175 239.82 453.892 241.089 453.892V458.89H239.831C238.335 458.89 237.202 459.241 236.431 459.944C235.683 460.647 235.309 461.871 235.309 463.616V473H230.549V454.164H235.309V457.088ZM257.157 457.088C257.769 456.091 258.562 455.309 259.537 454.742C260.534 454.175 261.667 453.892 262.937 453.892V458.89H261.679C260.183 458.89 259.049 459.241 258.279 459.944C257.531 460.647 257.157 461.871 257.157 463.616V473H252.397V454.164H257.157V457.088ZM283.653 463.174C283.653 463.854 283.608 464.466 283.517 465.01H269.747C269.86 466.37 270.336 467.435 271.175 468.206C272.014 468.977 273.045 469.362 274.269 469.362C276.037 469.362 277.295 468.603 278.043 467.084H283.177C282.633 468.897 281.59 470.393 280.049 471.572C278.508 472.728 276.615 473.306 274.371 473.306C272.558 473.306 270.926 472.909 269.475 472.116C268.047 471.3 266.925 470.155 266.109 468.682C265.316 467.209 264.919 465.509 264.919 463.582C264.919 461.633 265.316 459.921 266.109 458.448C266.902 456.975 268.013 455.841 269.441 455.048C270.869 454.255 272.512 453.858 274.371 453.858C276.162 453.858 277.76 454.243 279.165 455.014C280.593 455.785 281.692 456.884 282.463 458.312C283.256 459.717 283.653 461.338 283.653 463.174ZM278.723 461.814C278.7 460.59 278.258 459.615 277.397 458.89C276.536 458.142 275.482 457.768 274.235 457.768C273.056 457.768 272.059 458.131 271.243 458.856C270.45 459.559 269.962 460.545 269.781 461.814H278.723ZM289.541 451.92C288.68 451.92 287.966 451.659 287.399 451.138C286.855 450.594 286.583 449.925 286.583 449.132C286.583 448.339 286.855 447.681 287.399 447.16C287.966 446.616 288.68 446.344 289.541 446.344C290.38 446.344 291.071 446.616 291.615 447.16C292.159 447.681 292.431 448.339 292.431 449.132C292.431 449.925 292.159 450.594 291.615 451.138C291.071 451.659 290.38 451.92 289.541 451.92ZM291.887 476.094C291.887 478.179 291.366 479.675 290.323 480.582C289.303 481.511 287.83 481.976 285.903 481.976H283.795V477.93H285.155C285.881 477.93 286.391 477.783 286.685 477.488C286.98 477.216 287.127 476.763 287.127 476.128V454.164H291.887V476.094ZM304.954 473.306C303.141 473.306 301.509 472.909 300.058 472.116C298.607 471.3 297.463 470.155 296.624 468.682C295.808 467.209 295.4 465.509 295.4 463.582C295.4 461.655 295.819 459.955 296.658 458.482C297.519 457.009 298.687 455.875 300.16 455.082C301.633 454.266 303.277 453.858 305.09 453.858C306.903 453.858 308.547 454.266 310.02 455.082C311.493 455.875 312.649 457.009 313.488 458.482C314.349 459.955 314.78 461.655 314.78 463.582C314.78 465.509 314.338 467.209 313.454 468.682C312.593 470.155 311.414 471.3 309.918 472.116C308.445 472.909 306.79 473.306 304.954 473.306ZM304.954 469.158C305.815 469.158 306.62 468.954 307.368 468.546C308.139 468.115 308.751 467.481 309.204 466.642C309.657 465.803 309.884 464.783 309.884 463.582C309.884 461.791 309.408 460.42 308.456 459.468C307.527 458.493 306.382 458.006 305.022 458.006C303.662 458.006 302.517 458.493 301.588 459.468C300.681 460.42 300.228 461.791 300.228 463.582C300.228 465.373 300.67 466.755 301.554 467.73C302.461 468.682 303.594 469.158 304.954 469.158ZM320.686 451.92C319.847 451.92 319.144 451.659 318.578 451.138C318.034 450.594 317.762 449.925 317.762 449.132C317.762 448.339 318.034 447.681 318.578 447.16C319.144 446.616 319.847 446.344 320.686 446.344C321.524 446.344 322.216 446.616 322.76 447.16C323.326 447.681 323.61 448.339 323.61 449.132C323.61 449.925 323.326 450.594 322.76 451.138C322.216 451.659 321.524 451.92 320.686 451.92ZM323.032 454.164V473H318.272V454.164H323.032ZM338.173 453.892C340.417 453.892 342.23 454.606 343.613 456.034C344.995 457.439 345.687 459.411 345.687 461.95V473H340.927V462.596C340.927 461.1 340.553 459.955 339.805 459.162C339.057 458.346 338.037 457.938 336.745 457.938C335.43 457.938 334.387 458.346 333.617 459.162C332.869 459.955 332.495 461.1 332.495 462.596V473H327.735V454.164H332.495V456.51C333.129 455.694 333.934 455.059 334.909 454.606C335.906 454.13 336.994 453.892 338.173 453.892ZM348.989 463.514C348.989 461.61 349.363 459.921 350.111 458.448C350.882 456.975 351.925 455.841 353.239 455.048C354.554 454.255 356.016 453.858 357.625 453.858C358.849 453.858 360.017 454.13 361.127 454.674C362.238 455.195 363.122 455.898 363.779 456.782V447.84H368.607V473H363.779V470.212C363.19 471.141 362.363 471.889 361.297 472.456C360.232 473.023 358.997 473.306 357.591 473.306C356.005 473.306 354.554 472.898 353.239 472.082C351.925 471.266 350.882 470.121 350.111 468.648C349.363 467.152 348.989 465.441 348.989 463.514ZM363.813 463.582C363.813 462.426 363.587 461.44 363.133 460.624C362.68 459.785 362.068 459.151 361.297 458.72C360.527 458.267 359.699 458.04 358.815 458.04C357.931 458.04 357.115 458.255 356.367 458.686C355.619 459.117 355.007 459.751 354.531 460.59C354.078 461.406 353.851 462.381 353.851 463.514C353.851 464.647 354.078 465.645 354.531 466.506C355.007 467.345 355.619 467.991 356.367 468.444C357.138 468.897 357.954 469.124 358.815 469.124C359.699 469.124 360.527 468.909 361.297 468.478C362.068 468.025 362.68 467.39 363.133 466.574C363.587 465.735 363.813 464.738 363.813 463.582ZM378.016 457.088C378.628 456.091 379.421 455.309 380.396 454.742C381.393 454.175 382.527 453.892 383.796 453.892V458.89H382.538C381.042 458.89 379.909 459.241 379.138 459.944C378.39 460.647 378.016 461.871 378.016 463.616V473H373.256V454.164H378.016V457.088ZM404.512 463.174C404.512 463.854 404.467 464.466 404.376 465.01H390.606C390.72 466.37 391.196 467.435 392.034 468.206C392.873 468.977 393.904 469.362 395.128 469.362C396.896 469.362 398.154 468.603 398.902 467.084H404.036C403.492 468.897 402.45 470.393 400.908 471.572C399.367 472.728 397.474 473.306 395.23 473.306C393.417 473.306 391.785 472.909 390.334 472.116C388.906 471.3 387.784 470.155 386.968 468.682C386.175 467.209 385.778 465.509 385.778 463.582C385.778 461.633 386.175 459.921 386.968 458.448C387.762 456.975 388.872 455.841 390.3 455.048C391.728 454.255 393.372 453.858 395.23 453.858C397.021 453.858 398.619 454.243 400.024 455.014C401.452 455.785 402.552 456.884 403.322 458.312C404.116 459.717 404.512 461.338 404.512 463.174ZM399.582 461.814C399.56 460.59 399.118 459.615 398.256 458.89C397.395 458.142 396.341 457.768 395.094 457.768C393.916 457.768 392.918 458.131 392.102 458.856C391.309 459.559 390.822 460.545 390.64 461.814H399.582ZM426.526 453.892C428.77 453.892 430.584 454.606 431.966 456.034C433.349 457.439 434.04 459.411 434.04 461.95V473H429.28V462.596C429.28 461.1 428.906 459.955 428.158 459.162C427.41 458.346 426.39 457.938 425.098 457.938C423.784 457.938 422.741 458.346 421.97 459.162C421.222 459.955 420.848 461.1 420.848 462.596V473H416.088V454.164H420.848V456.51C421.483 455.694 422.288 455.059 423.262 454.606C424.26 454.13 425.348 453.892 426.526 453.892ZM446.931 473.306C445.117 473.306 443.485 472.909 442.035 472.116C440.584 471.3 439.439 470.155 438.601 468.682C437.785 467.209 437.377 465.509 437.377 463.582C437.377 461.655 437.796 459.955 438.635 458.482C439.496 457.009 440.663 455.875 442.137 455.082C443.61 454.266 445.253 453.858 447.067 453.858C448.88 453.858 450.523 454.266 451.997 455.082C453.47 455.875 454.626 457.009 455.465 458.482C456.326 459.955 456.757 461.655 456.757 463.582C456.757 465.509 456.315 467.209 455.431 468.682C454.569 470.155 453.391 471.3 451.895 472.116C450.421 472.909 448.767 473.306 446.931 473.306ZM446.931 469.158C447.792 469.158 448.597 468.954 449.345 468.546C450.115 468.115 450.727 467.481 451.181 466.642C451.634 465.803 451.861 464.783 451.861 463.582C451.861 461.791 451.385 460.42 450.433 459.468C449.503 458.493 448.359 458.006 446.999 458.006C445.639 458.006 444.494 458.493 443.565 459.468C442.658 460.42 442.205 461.791 442.205 463.582C442.205 465.373 442.647 466.755 443.531 467.73C444.437 468.682 445.571 469.158 446.931 469.158ZM465.79 458.074V467.186C465.79 467.821 465.938 468.285 466.232 468.58C466.55 468.852 467.071 468.988 467.796 468.988H470.006V473H467.014C463.002 473 460.996 471.051 460.996 467.152V458.074H458.752V454.164H460.996V449.506H465.79V454.164H470.006V458.074H465.79ZM478.19 457.088C478.802 456.091 479.595 455.309 480.57 454.742C481.567 454.175 482.701 453.892 483.97 453.892V458.89H482.712C481.216 458.89 480.083 459.241 479.312 459.944C478.564 460.647 478.19 461.871 478.19 463.616V473H473.43V454.164H478.19V457.088ZM504.686 463.174C504.686 463.854 504.641 464.466 504.55 465.01H490.78C490.893 466.37 491.369 467.435 492.208 468.206C493.047 468.977 494.078 469.362 495.302 469.362C497.07 469.362 498.328 468.603 499.076 467.084H504.21C503.666 468.897 502.623 470.393 501.082 471.572C499.541 472.728 497.648 473.306 495.404 473.306C493.591 473.306 491.959 472.909 490.508 472.116C489.08 471.3 487.958 470.155 487.142 468.682C486.349 467.209 485.952 465.509 485.952 463.582C485.952 461.633 486.349 459.921 487.142 458.448C487.935 456.975 489.046 455.841 490.474 455.048C491.902 454.255 493.545 453.858 495.404 453.858C497.195 453.858 498.793 454.243 500.198 455.014C501.626 455.785 502.725 456.884 503.496 458.312C504.289 459.717 504.686 461.338 504.686 463.174ZM499.756 461.814C499.733 460.59 499.291 459.615 498.43 458.89C497.569 458.142 496.515 457.768 495.268 457.768C494.089 457.768 493.092 458.131 492.276 458.856C491.483 459.559 490.995 460.545 490.814 461.814H499.756ZM162.122 514.582C162.122 512.633 162.519 510.933 163.312 509.482C164.105 508.009 165.205 506.875 166.61 506.082C168.015 505.266 169.625 504.858 171.438 504.858C173.773 504.858 175.699 505.447 177.218 506.626C178.759 507.782 179.791 509.414 180.312 511.522H175.178C174.906 510.706 174.441 510.071 173.784 509.618C173.149 509.142 172.356 508.904 171.404 508.904C170.044 508.904 168.967 509.403 168.174 510.4C167.381 511.375 166.984 512.769 166.984 514.582C166.984 516.373 167.381 517.767 168.174 518.764C168.967 519.739 170.044 520.226 171.404 520.226C173.331 520.226 174.589 519.365 175.178 517.642H180.312C179.791 519.682 178.759 521.303 177.218 522.504C175.677 523.705 173.75 524.306 171.438 524.306C169.625 524.306 168.015 523.909 166.61 523.116C165.205 522.3 164.105 521.167 163.312 519.716C162.519 518.243 162.122 516.531 162.122 514.582ZM192.163 524.306C190.35 524.306 188.718 523.909 187.267 523.116C185.816 522.3 184.672 521.155 183.833 519.682C183.017 518.209 182.609 516.509 182.609 514.582C182.609 512.655 183.028 510.955 183.867 509.482C184.728 508.009 185.896 506.875 187.369 506.082C188.842 505.266 190.486 504.858 192.299 504.858C194.112 504.858 195.756 505.266 197.229 506.082C198.702 506.875 199.858 508.009 200.697 509.482C201.558 510.955 201.989 512.655 201.989 514.582C201.989 516.509 201.547 518.209 200.663 519.682C199.802 521.155 198.623 522.3 197.127 523.116C195.654 523.909 193.999 524.306 192.163 524.306ZM192.163 520.158C193.024 520.158 193.829 519.954 194.577 519.546C195.348 519.115 195.96 518.481 196.413 517.642C196.866 516.803 197.093 515.783 197.093 514.582C197.093 512.791 196.617 511.42 195.665 510.468C194.736 509.493 193.591 509.006 192.231 509.006C190.871 509.006 189.726 509.493 188.797 510.468C187.89 511.42 187.437 512.791 187.437 514.582C187.437 516.373 187.879 517.755 188.763 518.73C189.67 519.682 190.803 520.158 192.163 520.158ZM228.873 504.892C231.185 504.892 233.043 505.606 234.449 507.034C235.877 508.439 236.591 510.411 236.591 512.95V524H231.831V513.596C231.831 512.123 231.457 511.001 230.709 510.23C229.961 509.437 228.941 509.04 227.649 509.04C226.357 509.04 225.325 509.437 224.555 510.23C223.807 511.001 223.433 512.123 223.433 513.596V524H218.673V513.596C218.673 512.123 218.299 511.001 217.551 510.23C216.803 509.437 215.783 509.04 214.491 509.04C213.176 509.04 212.133 509.437 211.363 510.23C210.615 511.001 210.241 512.123 210.241 513.596V524H205.481V505.164H210.241V507.442C210.853 506.649 211.635 506.025 212.587 505.572C213.561 505.119 214.627 504.892 215.783 504.892C217.256 504.892 218.571 505.209 219.727 505.844C220.883 506.456 221.778 507.34 222.413 508.496C223.025 507.408 223.909 506.535 225.065 505.878C226.243 505.221 227.513 504.892 228.873 504.892ZM264.5 504.892C266.812 504.892 268.67 505.606 270.076 507.034C271.504 508.439 272.218 510.411 272.218 512.95V524H267.458V513.596C267.458 512.123 267.084 511.001 266.336 510.23C265.588 509.437 264.568 509.04 263.276 509.04C261.984 509.04 260.952 509.437 260.182 510.23C259.434 511.001 259.06 512.123 259.06 513.596V524H254.3V513.596C254.3 512.123 253.926 511.001 253.178 510.23C252.43 509.437 251.41 509.04 250.118 509.04C248.803 509.04 247.76 509.437 246.99 510.23C246.242 511.001 245.868 512.123 245.868 513.596V524H241.108V505.164H245.868V507.442C246.48 506.649 247.262 506.025 248.214 505.572C249.188 505.119 250.254 504.892 251.41 504.892C252.883 504.892 254.198 505.209 255.354 505.844C256.51 506.456 257.405 507.34 258.04 508.496C258.652 507.408 259.536 506.535 260.692 505.878C261.87 505.221 263.14 504.892 264.5 504.892ZM294.517 505.164V524H289.723V521.62C289.111 522.436 288.306 523.082 287.309 523.558C286.334 524.011 285.269 524.238 284.113 524.238C282.639 524.238 281.336 523.932 280.203 523.32C279.069 522.685 278.174 521.767 277.517 520.566C276.882 519.342 276.565 517.891 276.565 516.214V505.164H281.325V515.534C281.325 517.03 281.699 518.186 282.447 519.002C283.195 519.795 284.215 520.192 285.507 520.192C286.821 520.192 287.853 519.795 288.601 519.002C289.349 518.186 289.723 517.03 289.723 515.534V505.164H294.517ZM309.651 504.892C311.895 504.892 313.709 505.606 315.091 507.034C316.474 508.439 317.165 510.411 317.165 512.95V524H312.405V513.596C312.405 512.1 312.031 510.955 311.283 510.162C310.535 509.346 309.515 508.938 308.223 508.938C306.909 508.938 305.866 509.346 305.095 510.162C304.347 510.955 303.973 512.1 303.973 513.596V524H299.213V505.164H303.973V507.51C304.608 506.694 305.413 506.059 306.387 505.606C307.385 505.13 308.473 504.892 309.651 504.892ZM320.468 514.514C320.468 512.61 320.842 510.921 321.59 509.448C322.36 507.975 323.392 506.841 324.684 506.048C325.998 505.255 327.46 504.858 329.07 504.858C330.475 504.858 331.699 505.141 332.742 505.708C333.807 506.275 334.657 506.989 335.292 507.85V505.164H340.086V524H335.292V521.246C334.68 522.13 333.83 522.867 332.742 523.456C331.676 524.023 330.441 524.306 329.036 524.306C327.449 524.306 325.998 523.898 324.684 523.082C323.392 522.266 322.36 521.121 321.59 519.648C320.842 518.152 320.468 516.441 320.468 514.514ZM335.292 514.582C335.292 513.426 335.065 512.44 334.612 511.624C334.158 510.785 333.546 510.151 332.776 509.72C332.005 509.267 331.178 509.04 330.294 509.04C329.41 509.04 328.594 509.255 327.846 509.686C327.098 510.117 326.486 510.751 326.01 511.59C325.556 512.406 325.33 513.381 325.33 514.514C325.33 515.647 325.556 516.645 326.01 517.506C326.486 518.345 327.098 518.991 327.846 519.444C328.616 519.897 329.432 520.124 330.294 520.124C331.178 520.124 332.005 519.909 332.776 519.478C333.546 519.025 334.158 518.39 334.612 517.574C335.065 516.735 335.292 515.738 335.292 514.582ZM362.517 505.164V524H357.723V521.62C357.111 522.436 356.306 523.082 355.309 523.558C354.334 524.011 353.269 524.238 352.113 524.238C350.639 524.238 349.336 523.932 348.203 523.32C347.069 522.685 346.174 521.767 345.517 520.566C344.882 519.342 344.565 517.891 344.565 516.214V505.164H349.325V515.534C349.325 517.03 349.699 518.186 350.447 519.002C351.195 519.795 352.215 520.192 353.507 520.192C354.821 520.192 355.853 519.795 356.601 519.002C357.349 518.186 357.723 517.03 357.723 515.534V505.164H362.517ZM372.755 509.074V518.186C372.755 518.821 372.903 519.285 373.197 519.58C373.515 519.852 374.036 519.988 374.761 519.988H376.971V524H373.979C369.967 524 367.961 522.051 367.961 518.152V509.074H365.717V505.164H367.961V500.506H372.755V505.164H376.971V509.074H372.755ZM397.905 514.174C397.905 514.854 397.859 515.466 397.769 516.01H383.999C384.112 517.37 384.588 518.435 385.427 519.206C386.265 519.977 387.297 520.362 388.521 520.362C390.289 520.362 391.547 519.603 392.295 518.084H397.429C396.885 519.897 395.842 521.393 394.301 522.572C392.759 523.728 390.867 524.306 388.623 524.306C386.809 524.306 385.177 523.909 383.727 523.116C382.299 522.3 381.177 521.155 380.361 519.682C379.567 518.209 379.171 516.509 379.171 514.582C379.171 512.633 379.567 510.921 380.361 509.448C381.154 507.975 382.265 506.841 383.693 506.048C385.121 505.255 386.764 504.858 388.623 504.858C390.413 504.858 392.011 505.243 393.417 506.014C394.845 506.785 395.944 507.884 396.715 509.312C397.508 510.717 397.905 512.338 397.905 514.174ZM392.975 512.814C392.952 511.59 392.51 510.615 391.649 509.89C390.787 509.142 389.733 508.768 388.487 508.768C387.308 508.768 386.311 509.131 385.495 509.856C384.701 510.559 384.214 511.545 384.033 512.814H392.975ZM392.261 500.2L384.441 503.77V500.37L392.261 496.324V500.2Z" fill="#1E2833"/>
<circle cx="475" cy="609" r="42" fill="#00A4BF"/>
<path d="M496.061 611.061C496.646 610.475 496.646 609.525 496.061 608.939L486.515 599.393C485.929 598.808 484.979 598.808 484.393 599.393C483.808 599.979 483.808 600.929 484.393 601.515L492.879 610L484.393 618.485C483.808 619.071 483.808 620.021 484.393 620.607C484.979 621.192 485.929 621.192 486.515 620.607L496.061 611.061ZM447 611.5H495V608.5H447V611.5Z" fill="white"/>
<defs>
<filter id="filter0_b_1024_102" x="32.7635" y="47.8538" width="649.32" height="854.222" filterUnits="userSpaceOnUse" color-interpolation-filters="sRGB">
<feFlood flood-opacity="0" result="BackgroundImageFix"/>
<feGaussianBlur in="BackgroundImageFix" stdDeviation="38.0731"/>
<feComposite in2="SourceAlpha" operator="in" result="effect1_backgroundBlur_1024_102"/>
<feBlend mode="normal" in="SourceGraphic" in2="effect1_backgroundBlur_1024_102" result="shape"/>
</filter>
<linearGradient id="paint0_linear_1024_102" x1="1080" y1="1024" x2="1080" y2="2048" gradientUnits="userSpaceOnUse">
<stop stop-color="#E7DDDB"/>
<stop offset="0.405" stop-color="#D1D7D6"/>
<stop offset="1" stop-color="#11A8C1"/>
</linearGradient>
<linearGradient id="paint1_linear_1024_102" x1="186.126" y1="134.028" x2="750.712" y2="328.613" gradientUnits="userSpaceOnUse">
<stop stop-color="#EFEFEF" stop-opacity="0.6"/>
<stop offset="1" stop-color="white" stop-opacity="0.08"/>
</linearGradient>
<linearGradient id="paint2_linear_1024_102" x1="133.761" y1="181.157" x2="696.052" y2="329.468" gradientUnits="userSpaceOnUse">
<stop stop-color="white" stop-opacity="0.6"/>
<stop offset="1" stop-color="white" stop-opacity="0.1"/>
</linearGradient>
</defs>
</svg>
