<svg width="40" height="40" viewBox="0 0 40 40" fill="none" xmlns="http://www.w3.org/2000/svg">
<path d="M20 28.3333C22.2102 28.3333 24.3298 27.4553 25.8926 25.8925C27.4554 24.3297 28.3334 22.2101 28.3334 20C28.3334 17.7898 27.4554 15.6702 25.8926 14.1074C24.3298 12.5446 22.2102 11.6666 20 11.6666C17.7899 11.6666 15.6703 12.5446 14.1075 14.1074C12.5447 15.6702 11.6667 17.7898 11.6667 20C11.6667 22.2101 12.5447 24.3297 14.1075 25.8925C15.6703 27.4553 17.7899 28.3333 20 28.3333Z" stroke="black" stroke-width="1.5" stroke-linecap="round" stroke-linejoin="round"/>
<path d="M1.25 28.3333V11.6667C1.25 8.90399 2.34747 6.25447 4.30097 4.30097C6.25447 2.34747 8.90399 1.25 11.6667 1.25H28.3333C31.096 1.25 33.7455 2.34747 35.699 4.30097C37.6525 6.25447 38.75 8.90399 38.75 11.6667V28.3333C38.75 31.096 37.6525 33.7455 35.699 35.699C33.7455 37.6525 31.096 38.75 28.3333 38.75H11.6667C8.90399 38.75 6.25447 37.6525 4.30097 35.699C2.34747 33.7455 1.25 31.096 1.25 28.3333Z" stroke="black" stroke-width="1.5"/>
<path d="M31.4583 8.56351L31.4801 8.53955" stroke="black" stroke-width="1.5" stroke-linecap="round" stroke-linejoin="round"/>
</svg>
