<svg width="95" height="95" viewBox="0 0 95 95" fill="none" xmlns="http://www.w3.org/2000/svg">
<circle cx="47.7168" cy="47.7149" r="46.9463" fill="url(#paint0_linear_714_140)"/>
<path d="M60.8333 49.8333C62.1167 49.8333 63.345 50.0717 64.5 50.475V42.5L53.5 31.5H35.1667C33.1317 31.5 31.5 33.1317 31.5 35.1667V60.8333C31.5 61.8058 31.8863 62.7384 32.5739 63.4261C33.2616 64.1137 34.1942 64.5 35.1667 64.5H50.475C50.0717 63.345 49.8333 62.1167 49.8333 60.8333C49.8333 54.765 54.765 49.8333 60.8333 49.8333ZM51.6667 34.25L61.75 44.3333H51.6667V34.25ZM68.1667 59V62.6667H62.6667V68.1667H59V62.6667H53.5V59H59V53.5H62.6667V59H68.1667Z" fill="#00A4BF"/>
<defs>
<linearGradient id="paint0_linear_714_140" x1="84.1002" y1="0.768618" x2="47.7168" y2="94.6612" gradientUnits="userSpaceOnUse">
<stop stop-color="#56E5FD"/>
<stop offset="1" stop-color="#EFFFF6"/>
</linearGradient>
</defs>
</svg>
