<svg width="95" height="95" viewBox="0 0 95 95" fill="none" xmlns="http://www.w3.org/2000/svg">
<circle cx="47.4033" cy="47.7149" r="46.9463" fill="url(#paint0_linear_714_157)"/>
<path d="M38.851 41.95L46.301 29.8C46.501 29.4667 46.751 29.2247 47.051 29.074C47.351 28.9233 47.6676 28.8487 48.001 28.85C48.3343 28.85 48.651 28.9253 48.951 29.076C49.251 29.2267 49.501 29.468 49.701 29.8L57.151 41.95C57.351 42.2833 57.451 42.6333 57.451 43C57.451 43.3667 57.3676 43.7 57.201 44C57.0343 44.3 56.801 44.542 56.501 44.726C56.201 44.91 55.851 45.0013 55.451 45H40.551C40.151 45 39.801 44.9087 39.501 44.726C39.201 44.5433 38.9676 44.3013 38.801 44C38.6343 43.7 38.551 43.3667 38.551 43C38.551 42.6333 38.651 42.2833 38.851 41.95ZM59.001 67C56.501 67 54.3763 66.1253 52.627 64.376C50.8776 62.6267 50.0023 60.5013 50.001 58C50.001 55.5 50.8763 53.3753 52.627 51.626C54.3776 49.8767 56.5023 49.0013 59.001 49C61.501 49 63.6263 49.8753 65.377 51.626C67.1276 53.3767 68.0023 55.5013 68.001 58C68.001 60.5 67.1263 62.6253 65.377 64.376C63.6276 66.1267 61.5023 67.0013 59.001 67ZM30.001 64V52C30.001 51.4333 30.193 50.9587 30.577 50.576C30.961 50.1933 31.4356 50.0013 32.001 50H44.001C44.5676 50 45.043 50.192 45.427 50.576C45.811 50.96 46.0023 51.4347 46.001 52V64C46.001 64.5667 45.809 65.042 45.425 65.426C45.041 65.81 44.5663 66.0013 44.001 66H32.001C31.4343 66 30.9596 65.808 30.577 65.424C30.1943 65.04 30.0023 64.5653 30.001 64Z" fill="#00A4BF"/>
<defs>
<linearGradient id="paint0_linear_714_157" x1="83.7867" y1="0.768618" x2="47.4033" y2="94.6612" gradientUnits="userSpaceOnUse">
<stop stop-color="#56E5FD"/>
<stop offset="1" stop-color="#EFFFF6"/>
</linearGradient>
</defs>
</svg>
